<svg width="20" height="20" viewBox="0 0 20 20" fill="none" xmlns="http://www.w3.org/2000/svg">
<path d="M10.9 19H19" stroke="#F1F1F1" stroke-width="1.5" stroke-linecap="round" stroke-linejoin="round"/>
<path d="M18.0651 5.39423L5.09968 18.4114C4.72439 18.7882 4.21446 19 3.68265 19H2.00383C1.44943 19 1 18.5466 1 17.9922V16.2987C1 15.7696 1.20962 15.2621 1.58297 14.8873L14.5517 1.86681C17.5632 -0.652791 20.5747 2.87462 18.0651 5.39423Z" stroke="#F1F1F1" stroke-width="1.5" stroke-linecap="round" stroke-linejoin="round"/>
<path d="M13.6 3.70001L16.3 6.40001" stroke="#F1F1F1" stroke-width="1.5" stroke-linecap="round" stroke-linejoin="round"/>
<path opacity="0.1" d="M16.3 7.17247L5.0322 18.4242C4.66309 18.7928 4.16156 19 3.6385 19H1.98731C1.44203 19 1 18.5565 1 18.0141V16.3575C1 15.8399 1.20617 15.3434 1.57338 14.9768L12.8662 3.70001C12.8755 3.74546 12.8978 3.78879 12.9332 3.82404L16.2947 7.16742C16.2965 7.16913 16.2982 7.17081 16.3 7.17247Z" fill="#F1F1F1"/>
</svg>
