<svg width="24" height="19" viewBox="0 0 24 19" fill="none" xmlns="http://www.w3.org/2000/svg">
<path opacity="0.1" d="M1.10978 2.88889C1 3.30131 1 3.84696 1 4.78958V14.3972C1 15.5163 1 16.0758 1.18372 16.5172C1.42869 17.1058 1.89855 17.5733 2.48994 17.8171C2.9335 18 3.49579 18 4.62037 18H19.1019C20.2265 18 20.7887 18 21.2323 17.8171C21.8236 17.5733 22.2936 17.1058 22.5385 16.5172C22.7222 16.0758 22.7222 15.5163 22.7222 14.3972V4.78958C22.7222 3.84695 22.7222 3.30131 22.6124 2.88889C22.5436 3.0384 22.4426 3.17618 22.3101 3.2915L14.2451 10.3142C12.8801 11.5028 10.8421 11.5028 9.4771 10.3142L1.41212 3.2915C1.27967 3.17618 1.17865 3.0384 1.10978 2.88889Z" fill="#F1F1F1"/>
<path d="M1 4.64286C1 3.51129 1 2.9455 1.18372 2.49919C1.42869 1.90413 1.89855 1.43135 2.48994 1.18486C2.9335 1 3.49579 1 4.62037 1H19.1019C20.2265 1 20.7887 1 21.2323 1.18486C21.8236 1.43135 22.2936 1.90413 22.5385 2.49919C22.7222 2.9455 22.7222 3.51129 22.7222 4.64286V14.3571C22.7222 15.4887 22.7222 16.0545 22.5385 16.5008C22.2936 17.0958 21.8236 17.5687 21.2323 17.8152C20.7887 18 20.2265 18 19.1019 18H4.62037C3.49579 18 2.9335 18 2.48994 17.8152C1.89855 17.5687 1.42869 17.0958 1.18372 16.5008C1 16.0545 1 15.4887 1 14.3571V4.64286Z" stroke="#F1F1F1" stroke-width="1.5" stroke-linejoin="round"/>
<path d="M1.94446 1.94446L10.2286 8.91051C11.1632 9.69651 12.559 9.69651 13.4937 8.91051L21.7778 1.94446" stroke="#F1F1F1" stroke-width="1.5" stroke-linecap="round" stroke-linejoin="round"/>
</svg>
