<svg width="29" height="23" viewBox="0 0 29 23" fill="none" xmlns="http://www.w3.org/2000/svg">
<path d="M28.022 11.0007C28.022 5.15625 23.4316 0.363688 17.66 0.022C17.5411 0.0089375 17.4222 0 17.3005 0C17.2647 0 17.229 0.0034375 17.1932 0.0048125C17.1293 0.0034375 17.0653 0 17 0C10.9225 0 5.97803 4.93487 5.97803 11.0007C5.97803 17.0665 10.9225 22.0014 17 22.0014C17.0647 22.0014 17.1293 21.9972 17.1932 21.9959C17.229 21.9972 17.2647 22.0014 17.3005 22.0014C17.4215 22.0014 17.5404 21.9931 17.66 21.9794C23.4316 21.6377 28.022 16.8451 28.022 11.0007ZM25.9712 14.542C25.5924 14.432 24.6409 14.1934 22.962 13.9961C23.1009 13.0467 23.1772 12.0436 23.1772 11.0007C23.1772 10.1784 23.1298 9.38231 23.0418 8.61575C25.1689 8.36138 26.1012 8.04169 26.163 8.01969L25.9073 7.29781C26.3851 8.43838 26.6498 9.68894 26.6498 11.0007C26.6498 12.2506 26.4078 13.4447 25.9712 14.542ZM12.1332 11.0007C12.1332 10.2314 12.1841 9.47994 12.2776 8.75738C13.392 8.84469 14.7258 8.91 16.2919 8.92444V13.695C14.7663 13.7094 13.4635 13.7713 12.367 13.8559C12.2157 12.9491 12.1332 11.99 12.1332 11.0007ZM17.6648 1.46644C19.3506 1.95525 20.7943 4.2955 21.4406 7.39819C20.4011 7.48069 19.1498 7.54188 17.6648 7.55563V1.46644ZM16.2926 1.48294V7.55494C14.8241 7.5405 13.5667 7.48 12.51 7.39956C13.17 4.33538 14.6247 2.01231 16.2926 1.48294ZM16.2926 15.0659V20.5171C14.7368 20.0234 13.3666 17.9699 12.6537 15.2102C13.6794 15.1346 14.8908 15.0803 16.2926 15.0659ZM17.6648 20.5349V15.0659C19.0818 15.0796 20.287 15.136 21.3003 15.2151C20.5998 18.0111 19.2378 20.0798 17.6648 20.5349ZM17.6648 13.6957V8.92513C19.2399 8.91069 20.5647 8.844 21.6647 8.75325C21.7548 9.47719 21.8043 10.2293 21.8043 11C21.8043 11.9914 21.7245 12.9525 21.5781 13.86C20.4953 13.772 19.198 13.7101 17.6648 13.6957ZM25.6543 6.74506C25.4467 6.80969 24.579 7.0565 22.8397 7.26138C22.4519 5.20025 21.7507 3.43819 20.839 2.16562C22.9345 3.07656 24.6443 4.70731 25.655 6.74506H25.6543ZM13.709 1.947C12.587 3.23469 11.6719 5.0875 11.1714 7.27788C9.61421 7.10944 8.68059 6.91075 8.30728 6.82069C9.39696 4.57256 11.3371 2.80844 13.7083 1.94769L13.709 1.947ZM7.79715 8.10425C8.06184 8.17575 9.06284 8.42531 10.9246 8.63088C10.818 9.39194 10.7596 10.1846 10.7596 11.0007C10.7596 12.0381 10.8531 13.0357 11.0229 13.9803C9.42446 14.1529 8.44134 14.3598 8.00065 14.4657C7.58334 13.3891 7.35165 12.2217 7.35165 11C7.35165 9.99144 7.5084 9.01794 7.79784 8.10356L7.79715 8.10425ZM8.60153 15.7348C9.10134 15.6289 9.99646 15.4667 11.3213 15.3285C11.8431 17.2556 12.6915 18.8863 13.709 20.0544C11.5365 19.2651 9.72834 17.7176 8.60153 15.7348ZM20.8383 19.8344C21.6599 18.6897 22.3096 17.1483 22.7138 15.3484C24.0765 15.5045 24.9317 15.6881 25.3628 15.7967C24.3315 17.5814 22.7448 19.0066 20.8383 19.8344Z" fill="#F1F1F1"/>
<path d="M1.86359 15.4414C1.596 15.5927 1.245 16.0065 0.913139 16.4809C0.461111 17.127 1.01657 17.8836 1.79251 17.743C3.98537 17.3457 7.02653 16.7571 8.10823 16.594C9.71558 16.3515 11.5058 16.5425 11.8677 16.5858C11.9124 16.5911 11.95 16.5985 11.9934 16.6104C12.8162 16.836 21.9088 19.3263 26.471 20.4529C27.3589 20.6721 27.7049 19.9365 26.9616 19.4038C26.0952 18.7828 25.3602 18.2966 25.3055 18.2211C25.2074 18.0855 11.1815 11.7126 9.87373 11.7804C8.56595 11.8482 2.58286 15.0346 1.86359 15.4414Z" fill="#F1F1F1"/>
<path d="M21.3398 7.53938C18.0525 8.31291 14.7655 9.55537 12.6085 10.4894C11.9209 10.7871 11.8812 11.6296 12.5551 11.9571C14.3337 12.8215 17.056 13.9431 17.4589 13.7465C17.8757 13.5431 19.819 11.5283 21.9921 9.27514L22.1724 9.08822C22.8328 8.40359 22.2658 7.3215 21.3398 7.53938Z" fill="#F1F1F1"/>
<path d="M1.86359 15.4414C1.596 15.5927 1.245 16.0065 0.913139 16.4809C0.461111 17.127 1.01657 17.8836 1.79251 17.743C3.98537 17.3457 7.02653 16.7571 8.10823 16.594C9.71558 16.3515 11.5058 16.5425 11.8677 16.5858C11.9124 16.5911 11.95 16.5985 11.9934 16.6104C12.8162 16.836 21.9088 19.3263 26.471 20.4529C27.3589 20.6721 27.7049 19.9365 26.9616 19.4038C26.0952 18.7828 25.3602 18.2966 25.3055 18.2211C25.2074 18.0855 11.1815 11.7126 9.87373 11.7804C8.56595 11.8482 2.58286 15.0346 1.86359 15.4414Z" stroke="#FFFBEC"/>
<path d="M21.3398 7.53938C18.0525 8.31291 14.7655 9.55537 12.6085 10.4894C11.9209 10.7871 11.8812 11.6296 12.5551 11.9571C14.3337 12.8215 17.056 13.9431 17.4589 13.7465C17.8757 13.5431 19.819 11.5283 21.9921 9.27514L22.1724 9.08822C22.8328 8.40359 22.2658 7.3215 21.3398 7.53938Z" stroke="#FFFBEC"/>
</svg>
