<svg width="119" height="119" viewBox="0 0 119 119" fill="none" xmlns="http://www.w3.org/2000/svg">
<g clip-path="url(#clip0_42_181)">
<path d="M59.5 0C26.6906 0 0 26.6906 0 59.5C0 92.3094 26.6906 119 59.5 119C92.3094 119 119 92.3094 119 59.5C119 26.6906 92.3094 0 59.5 0ZM90.6285 104.224L77.965 99.9997L76.9535 95.9586C89.2551 93.8661 95.6019 90.1722 95.8794 90.0086C96.5834 89.597 97.0199 88.8484 97.0794 88.0351C97.1389 87.2219 96.7719 86.4186 96.1374 85.9129C96.053 85.8485 87.733 78.9563 87.733 55.0968C87.733 34.8073 82.963 24.5186 73.5471 24.5186H72.2184C68.8566 21.271 66.303 19.833 59.5002 19.833C50.6545 19.833 31.2675 28.7134 31.2675 55.0917C31.2675 78.9512 22.9475 85.8432 22.8929 85.8878C22.2335 86.3835 21.8616 87.1719 21.9011 87.9952C21.9457 88.8233 22.392 89.567 23.1011 89.9933C23.3789 90.1618 29.661 93.8708 42.0419 95.963L41.0352 99.9942L28.3717 104.219C14.2403 94.357 4.95826 78.0045 4.95826 59.5C4.95826 29.4276 29.4276 4.95826 59.5 4.95826C89.5724 4.95826 114.042 29.4276 114.042 59.5C114.042 78.0045 104.76 94.357 90.6285 104.224Z" fill="#53EAFF"/>
</g>
<defs>
<clipPath id="clip0_42_181">
<rect width="119" height="119" fill="white"/>
</clipPath>
</defs>
</svg>
