<svg width="66" height="66" viewBox="0 0 66 66" fill="none" xmlns="http://www.w3.org/2000/svg">
<circle cx="33" cy="33" r="33" fill="#2A485D"/>
<path d="M9.47403 35.8658C8.76686 37.9873 9.68026 40.2764 10.3066 41.3024C10.3681 41.4033 10.474 41.4664 10.5915 41.4795L13.7984 41.8358C14.1273 41.8723 14.3678 41.5082 14.2484 41.1995C13.3283 38.82 14.0759 35.3997 17.8637 35.3997C21.6564 35.3997 22.4318 39.4767 21.3723 41.5298C21.2842 41.7004 21.4004 41.925 21.5924 41.925H43.4988C43.6534 41.925 43.729 41.7202 43.6252 41.6057C41.7894 39.5791 43.2306 35.3997 46.7615 35.3997C50.497 35.3997 51.6452 39.0957 50.8645 41.2217C50.7509 41.5311 50.9608 41.925 51.2904 41.9249C54.9865 41.9232 53.8108 41.896 54.6851 41.4589C57.6912 39.9885 57.1124 37.7858 56.7591 36.7258C56.6285 36.3341 55.5611 36.6941 54.4286 36.2598C53.4423 35.8815 52.8539 34.7053 52.5642 34.3954C51.9993 33.791 54.1618 32.5085 53.4964 32.0649C52.3926 31.3291 46.002 29.9978 43.146 29.8133C43.0703 29.8085 43.0016 29.7843 42.9399 29.7403C40.7312 28.1638 36.3105 25.0472 35.5752 24.6795C34.6431 24.2134 25.7873 23.7473 22.5246 24.6795C19.9145 25.4253 18.0191 26.8546 17.3976 27.4761C16.0151 28.8586 14.6325 30.2412 13.7005 30.7226C13.6792 30.7337 13.6592 30.746 13.64 30.7604L11.8244 32.1221C11.8111 32.132 11.805 32.1373 11.7925 32.1482C11.5611 32.3478 11.5777 32.531 11.8833 32.531H13.4232C13.6645 32.531 13.8482 32.7429 13.7975 32.9789C13.6493 33.6687 13.2739 34.951 12.4802 35.3276C11.9957 35.5574 11.1365 35.5537 11.0844 35.5533L11.0794 35.5533H9.86327C9.6946 35.5533 9.54361 35.6589 9.48977 35.8188L9.47403 35.8658Z" stroke="#86CEFF" stroke-width="1.5"/>
<path d="M31.1237 27.8701H21.3357C21.3357 29.7344 23.2001 31.7542 24.5983 32.531L25.5305 37.1919C27.3453 37.1919 29.3014 37.1919 31.1237 37.1919M31.1237 27.8701H34.8524L40.9116 31.5988V33.9293C39.9794 33.9293 38.0218 34.5818 37.649 37.1919C36.5105 37.1919 33.9816 37.1919 31.1237 37.1919M31.1237 27.8701V37.1919" stroke="#86CEFF" stroke-width="1.5"/>
</svg>
