<svg width="66" height="66" viewBox="0 0 66 66" fill="none" xmlns="http://www.w3.org/2000/svg">
<circle cx="33" cy="33" r="33" fill="#2D3B84"/>
<path fill-rule="evenodd" clip-rule="evenodd" d="M20.059 12.285C19.9198 12.0465 19.6137 11.9659 19.3752 12.1051L13.4422 15.566C13.2036 15.7051 13.1231 16.0113 13.2622 16.2498L13.4486 16.5693L20.2388 12.5932L20.059 12.285ZM20.7426 13.457L13.9525 17.4331L16.9833 22.6289C17.0603 22.7608 17.1933 22.8503 17.3445 22.8719L20.8633 23.3746C21.3104 23.4385 21.705 23.7005 21.9374 24.0878L23.462 26.6288H24.8708L22.9666 23.2964C22.7549 22.9259 22.711 22.4827 22.846 22.0779L23.8382 19.101C23.8837 18.9646 23.8682 18.8152 23.7958 18.691L20.7426 13.457ZM26.0226 26.6288L23.8349 22.8003C23.7643 22.6768 23.7496 22.529 23.7946 22.3941L24.7869 19.4172C24.9233 19.008 24.8769 18.5597 24.6596 18.1871L21.3541 12.5205L20.9228 11.7812C20.5053 11.0656 19.5869 10.8239 18.8713 11.2413L12.9383 14.7022C12.2227 15.1196 11.981 16.0381 12.3984 16.7537L12.8372 17.5058L16.1196 23.1328C16.3504 23.5285 16.7495 23.7971 17.2031 23.8619L20.7219 24.3646C20.8709 24.3859 21.0024 24.4732 21.0799 24.6023L22.2958 26.6288H19.1245C18.7266 26.6288 18.3451 26.7868 18.0638 27.0681L16.7344 28.3975C16.6407 28.4913 16.5135 28.5439 16.3809 28.5439H14.6416C14.1445 28.5439 13.7416 28.9469 13.7416 29.4439V31.1975C13.7416 31.6945 14.1445 32.0975 14.6416 32.0975H16.1965C16.5148 32.0975 16.7521 32.391 16.6854 32.7022L15.2886 39.2205C15.0885 40.1543 15.8004 41.0348 16.7553 41.0348H18.4813C19.2278 41.0348 19.8607 40.4859 19.9663 39.7469L20.4207 36.5661H21.9021C22.1783 36.5661 22.4021 36.3423 22.4021 36.0661C22.4021 35.79 22.1783 35.5661 21.9021 35.5661H19.987C19.9543 35.5661 19.9293 35.5372 19.9339 35.5049L20.3593 32.5268C20.3945 32.2804 20.6055 32.0975 20.8543 32.0975H22.2315L23.2975 34.2294C23.3696 34.3737 23.4645 34.5053 23.5785 34.6193L24.7405 35.7813C24.9358 35.9766 25.2523 35.9766 25.4476 35.7813C25.6429 35.586 25.6429 35.2695 25.4476 35.0742L24.2856 33.9122C24.2476 33.8742 24.216 33.8303 24.1919 33.7822L23.3495 32.0975H28.9243H29.8395C30.592 32.0975 31.2152 31.5433 31.323 30.8207H32.1162C32.3924 30.8207 32.6162 30.5968 32.6162 30.3207C32.6162 30.0446 32.3924 29.8207 32.1162 29.8207H31.3395V28.2672H32.1162C32.3924 28.2672 32.6162 28.0433 32.6162 27.7672C32.6162 27.491 32.3924 27.2672 32.1162 27.2672H31.2241C31.0389 26.8891 30.6504 26.6288 30.2011 26.6288H28.9243H28.2859H26.3708H26.0226ZM30.3395 27.7672C30.3395 27.6908 30.2775 27.6288 30.2011 27.6288H29.4243V31.0975H29.8395C30.1156 31.0975 30.3395 30.8736 30.3395 30.5975V30.3207V27.7672ZM28.4243 31.0975V27.6288H28.2859H26.8708V29.6823C26.8708 29.9585 26.6469 30.1823 26.3708 30.1823C26.0947 30.1823 25.8708 29.9585 25.8708 29.6823V27.6288H25.7324H23.1789H19.1245C18.9918 27.6288 18.8647 27.6815 18.7709 27.7753L17.4415 29.1046C17.1602 29.3859 16.7787 29.5439 16.3809 29.5439H14.7416V31.0975H16.1965C17.1515 31.0975 17.8633 31.978 17.6632 32.9118L16.2664 39.43C16.1997 39.7413 16.437 40.0348 16.7553 40.0348H18.4813C18.7302 40.0348 18.9411 39.8518 18.9763 39.6055L19.4329 36.4091C19.0909 36.1971 18.8822 35.7958 18.9439 35.3635L19.3694 32.3853C19.4749 31.6464 20.1078 31.0975 20.8543 31.0975H21.6063L20.8477 29.9597C20.6946 29.7299 20.7566 29.4195 20.9864 29.2663C21.2162 29.1131 21.5266 29.1752 21.6798 29.405L22.8081 31.0975H28.4243ZM17.9332 42.4499V44.6418C17.9332 44.918 18.157 45.1418 18.4332 45.1418H26.7729C27.0005 45.1418 27.2579 45.1933 27.4888 45.3475C27.8792 45.6084 28.7859 46.3368 28.7859 47.557C28.7859 48.1155 28.5923 48.6447 28.3693 49.0744C28.144 49.5085 27.8704 49.8758 27.6694 50.1197C27.3929 50.4551 26.9878 50.6105 26.5947 50.6105H18.412C18.297 50.6105 18.2119 50.6476 18.1595 50.6973C17.8256 51.0135 17.3678 51.5516 17.29 52.0963C17.2479 52.3904 17.3435 52.734 17.5365 53.0928C17.7257 53.4446 17.9797 53.7573 18.1708 53.9669C18.2304 54.0324 18.3293 54.0792 18.4579 54.0792H27.924C28.7524 54.0792 29.424 54.7507 29.424 55.5792V57.1327H28.424V55.5792C28.424 55.303 28.2002 55.0792 27.924 55.0792H18.4579C18.0893 55.0792 17.707 54.9426 17.4317 54.6405C17.2116 54.399 16.8988 54.0182 16.6558 53.5665C16.4167 53.1219 16.2147 52.552 16.3 51.9549C16.4299 51.0458 17.1219 50.3027 17.4718 49.9712C17.7399 49.7173 18.0855 49.6105 18.412 49.6105H26.5947C26.732 49.6105 26.8369 49.5575 26.8977 49.4837C27.072 49.2721 27.2996 48.9645 27.4817 48.6137C27.666 48.2586 27.7859 47.8931 27.7859 47.557C27.7859 46.8666 27.2628 46.3992 26.9332 46.179C26.9059 46.1608 26.8557 46.1418 26.7729 46.1418H18.4332C17.6048 46.1418 16.9332 45.4703 16.9332 44.6418V42.4499H17.9332ZM54.5609 26.8234L49.2681 23.7676C48.0305 23.053 46.5057 23.053 45.2681 23.7676L39.9753 26.8234C38.7377 27.5379 37.9753 28.8584 37.9753 30.2875V36.3991C37.9753 37.8281 38.7377 39.1486 39.9753 39.8632L45.2681 42.919C46.5057 43.6335 48.0305 43.6335 49.2681 42.919L54.5609 39.8632C55.7985 39.1486 56.5609 37.8281 56.5609 36.3991V30.2875C56.5609 28.8584 55.7985 27.5379 54.5609 26.8234ZM45.7681 24.6336C46.6963 24.0977 47.8399 24.0977 48.7681 24.6336L54.0609 27.6894C54.9891 28.2253 55.5609 29.2157 55.5609 30.2875V36.3991C55.5609 37.4709 54.9891 38.4612 54.0609 38.9971L48.7681 42.0529C47.8399 42.5888 46.6963 42.5888 45.7681 42.0529L40.4753 38.9971C39.5471 38.4612 38.9753 37.4709 38.9753 36.3991V30.2875C38.9753 29.2157 39.5471 28.2253 40.4753 27.6894L45.7681 24.6336ZM46.259 28.5391C46.3538 28.4344 46.4884 28.3746 46.6297 28.3746H47.9065C48.0477 28.3746 48.1824 28.4344 48.2772 28.5391C48.372 28.6439 48.418 28.7838 48.404 28.9244L47.7656 35.3082C47.74 35.5638 47.525 35.7584 47.2681 35.7584C47.0112 35.7584 46.7961 35.5638 46.7706 35.3082L46.1322 28.9244C46.1181 28.7838 46.1642 28.6439 46.259 28.5391ZM47.1822 29.3746L47.2681 30.2335L47.354 29.3746H47.1822ZM47.2681 39.0887C47.6207 39.0887 47.9065 38.8029 47.9065 38.4503C47.9065 38.0977 47.6207 37.8119 47.2681 37.8119C46.9155 37.8119 46.6297 38.0977 46.6297 38.4503C46.6297 38.8029 46.9155 39.0887 47.2681 39.0887Z" fill="#A5D4FF"/>
<path d="M19.3752 12.1051L19.5011 12.321L19.3752 12.1051ZM20.059 12.285L19.843 12.411V12.411L20.059 12.285ZM13.4422 15.566L13.5681 15.7819L13.5681 15.7819L13.4422 15.566ZM13.2622 16.2498L13.4781 16.1238H13.4781L13.2622 16.2498ZM13.4486 16.5693L13.2326 16.6953L13.3588 16.9116L13.5749 16.7851L13.4486 16.5693ZM20.2388 12.5932L20.3651 12.8089L20.5805 12.6828L20.4547 12.4672L20.2388 12.5932ZM13.9525 17.4331L13.8261 17.2174L13.6108 17.3435L13.7365 17.5591L13.9525 17.4331ZM20.7426 13.457L20.9586 13.331L20.8324 13.1147L20.6163 13.2413L20.7426 13.457ZM16.9833 22.6289L17.1993 22.5029L17.1993 22.5029L16.9833 22.6289ZM17.3445 22.8719L17.3092 23.1194L17.3092 23.1194L17.3445 22.8719ZM20.8633 23.3746L20.8986 23.1271L20.8633 23.3746ZM21.9374 24.0878L22.1518 23.9592L21.9374 24.0878ZM23.462 26.6288L23.2476 26.7574L23.3205 26.8788H23.462V26.6288ZM24.8708 26.6288V26.8788H25.3016L25.0879 26.5048L24.8708 26.6288ZM22.9666 23.2964L23.1837 23.1724L22.9666 23.2964ZM22.846 22.0779L23.0831 22.1569V22.1569L22.846 22.0779ZM23.8382 19.101L23.6011 19.022L23.8382 19.101ZM23.7958 18.691L24.0117 18.565V18.565L23.7958 18.691ZM23.8349 22.8003L24.0519 22.6762L23.8349 22.8003ZM26.0226 26.6288L25.8055 26.7528L25.8775 26.8788H26.0226V26.6288ZM23.7946 22.3941L23.5575 22.315L23.7946 22.3941ZM24.7869 19.4172L25.0241 19.4963L24.7869 19.4172ZM24.6596 18.1871L24.4436 18.3131V18.3131L24.6596 18.1871ZM21.3541 12.5205L21.57 12.3945L21.3541 12.5205ZM20.9228 11.7812L20.7068 11.9071V11.9071L20.9228 11.7812ZM18.8713 11.2413L18.7453 11.0253V11.0253L18.8713 11.2413ZM12.9383 14.7022L12.8123 14.4863L12.9383 14.7022ZM12.3984 16.7537L12.1825 16.8796H12.1825L12.3984 16.7537ZM12.8372 17.5058L13.0531 17.3798L12.8372 17.5058ZM16.1196 23.1328L16.3355 23.0068V23.0068L16.1196 23.1328ZM17.2031 23.8619L17.1677 24.1094V24.1094L17.2031 23.8619ZM20.7219 24.3646L20.7572 24.1171H20.7572L20.7219 24.3646ZM21.0799 24.6023L21.2943 24.4737L21.2943 24.4737L21.0799 24.6023ZM22.2958 26.6288V26.8788H22.7374L22.5102 26.5002L22.2958 26.6288ZM18.0638 27.0681L18.2406 27.2449L18.0638 27.0681ZM16.7344 28.3975L16.9112 28.5743H16.9112L16.7344 28.3975ZM16.6854 32.7022L16.4409 32.6499L16.6854 32.7022ZM15.2886 39.2205L15.5331 39.2729V39.2729L15.2886 39.2205ZM19.9663 39.7469L20.2137 39.7823L19.9663 39.7469ZM20.4207 36.5661V36.3161H20.2038L20.1732 36.5308L20.4207 36.5661ZM19.9339 35.5049L20.1814 35.5402L19.9339 35.5049ZM20.3593 32.5268L20.6068 32.5621V32.5621L20.3593 32.5268ZM22.2315 32.0975L22.4551 31.9857L22.386 31.8475H22.2315V32.0975ZM23.2975 34.2294L23.0739 34.3413H23.0739L23.2975 34.2294ZM24.7405 35.7813L24.5637 35.9581H24.5637L24.7405 35.7813ZM25.4476 35.7813L25.6244 35.9581H25.6244L25.4476 35.7813ZM25.4476 35.0742L25.6244 34.8974L25.4476 35.0742ZM24.2856 33.9122L24.1088 34.089H24.1088L24.2856 33.9122ZM24.1919 33.7822L24.4155 33.6704L24.1919 33.7822ZM23.3495 32.0975V31.8475H22.945L23.1259 32.2093L23.3495 32.0975ZM31.323 30.8207V30.5707H31.1075L31.0757 30.7838L31.323 30.8207ZM31.3395 29.8207H31.0895V30.0707H31.3395V29.8207ZM31.3395 28.2672V28.0172H31.0895V28.2672H31.3395ZM31.2241 27.2672L30.9995 27.3771L31.0681 27.5172H31.2241V27.2672ZM29.4243 27.6288V27.3788H29.1743V27.6288H29.4243ZM29.4243 31.0975H29.1743V31.3475H29.4243V31.0975ZM28.4243 27.6288H28.6743V27.3788H28.4243V27.6288ZM28.4243 31.0975V31.3475H28.6743V31.0975H28.4243ZM26.8708 27.6288V27.3788H26.6208V27.6288H26.8708ZM25.8708 27.6288H26.1208V27.3788H25.8708V27.6288ZM18.7709 27.7753L18.5941 27.5985H18.5941L18.7709 27.7753ZM17.4415 29.1046L17.2648 28.9278L17.4415 29.1046ZM14.7416 29.5439V29.2939H14.4916V29.5439H14.7416ZM14.7416 31.0975H14.4916V31.3475H14.7416V31.0975ZM17.6632 32.9118L17.9076 32.9641L17.6632 32.9118ZM16.2664 39.43L16.022 39.3776L16.2664 39.43ZM18.9763 39.6055L18.7288 39.5701L18.9763 39.6055ZM19.4329 36.4091L19.6804 36.4444L19.7035 36.2827L19.5647 36.1966L19.4329 36.4091ZM18.9439 35.3635L19.1914 35.3988L18.9439 35.3635ZM19.3694 32.3853L19.1219 32.35L19.3694 32.3853ZM21.6063 31.0975V31.3475H22.0734L21.8143 30.9588L21.6063 31.0975ZM20.8477 29.9597L21.0557 29.821L20.8477 29.9597ZM20.9864 29.2663L20.8477 29.0583H20.8477L20.9864 29.2663ZM21.6798 29.405L21.4718 29.5437L21.6798 29.405ZM22.8081 31.0975L22.6001 31.2361L22.6743 31.3475H22.8081V31.0975ZM17.9332 42.4499H18.1832V42.1999H17.9332V42.4499ZM27.4888 45.3475L27.6276 45.1396H27.6276L27.4888 45.3475ZM28.3693 49.0744L28.5912 49.1896L28.3693 49.0744ZM27.6694 50.1197L27.8623 50.2787L27.6694 50.1197ZM18.1595 50.6973L17.9875 50.5158L17.9875 50.5158L18.1595 50.6973ZM17.29 52.0963L17.0425 52.061L17.29 52.0963ZM17.5365 53.0928L17.3163 53.2113H17.3163L17.5365 53.0928ZM18.1708 53.9669L18.3556 53.7985L18.3555 53.7985L18.1708 53.9669ZM29.424 57.1327V57.3827H29.674V57.1327H29.424ZM28.424 57.1327H28.174V57.3827H28.424V57.1327ZM17.4317 54.6405L17.2469 54.8089L17.4317 54.6405ZM16.6558 53.5665L16.876 53.4481H16.876L16.6558 53.5665ZM16.3 51.9549L16.0525 51.9196L16.3 51.9549ZM17.4718 49.9712L17.6437 50.1528L17.4718 49.9712ZM26.8977 49.4837L26.7048 49.3246L26.7048 49.3246L26.8977 49.4837ZM27.4817 48.6137L27.7036 48.7289L27.4817 48.6137ZM26.9332 46.179L27.0721 45.9711L27.0721 45.9711L26.9332 46.179ZM16.9332 42.4499V42.1999H16.6832V42.4499H16.9332ZM49.2681 23.7676L49.1431 23.9841V23.9841L49.2681 23.7676ZM54.5609 26.8234L54.4359 27.0399L54.5609 26.8234ZM45.2681 23.7676L45.3931 23.9841V23.9841L45.2681 23.7676ZM39.9753 26.8234L40.1003 27.0399L39.9753 26.8234ZM39.9753 39.8632L40.1003 39.6467L39.9753 39.8632ZM45.2681 42.919L45.1431 43.1355L45.2681 42.919ZM49.2681 42.919L49.3931 43.1355L49.2681 42.919ZM54.5609 39.8632L54.6859 40.0797L54.5609 39.8632ZM48.7681 24.6336L48.6431 24.8501V24.8501L48.7681 24.6336ZM45.7681 24.6336L45.6431 24.4171L45.7681 24.6336ZM54.0609 27.6894L53.9359 27.9059L54.0609 27.6894ZM54.0609 38.9971L54.1859 39.2137L54.0609 38.9971ZM48.7681 42.0529L48.8931 42.2695L48.7681 42.0529ZM45.7681 42.0529L45.6431 42.2695L45.7681 42.0529ZM40.4753 38.9971L40.6003 38.7806L40.4753 38.9971ZM40.4753 27.6894L40.6003 27.9059L40.4753 27.6894ZM46.259 28.5391L46.0736 28.3714L46.0736 28.3714L46.259 28.5391ZM48.2772 28.5391L48.4626 28.3714L48.4626 28.3714L48.2772 28.5391ZM48.404 28.9244L48.6527 28.9492V28.9492L48.404 28.9244ZM47.7656 35.3082L47.5168 35.2833V35.2833L47.7656 35.3082ZM46.7706 35.3082L47.0193 35.2833V35.2833L46.7706 35.3082ZM46.1322 28.9244L45.8834 28.9492V28.9492L46.1322 28.9244ZM47.2681 30.2335L47.0193 30.2584L47.5168 30.2584L47.2681 30.2335ZM47.1822 29.3746V29.1246H46.906L46.9334 29.3995L47.1822 29.3746ZM47.354 29.3746L47.6027 29.3995L47.6302 29.1246H47.354V29.3746ZM19.5011 12.321C19.6204 12.2514 19.7735 12.2917 19.843 12.411L20.2749 12.1591C20.0662 11.8013 19.607 11.6804 19.2492 11.8891L19.5011 12.321ZM13.5681 15.7819L19.5011 12.321L19.2492 11.8891L13.3162 15.35L13.5681 15.7819ZM13.4781 16.1238C13.4086 16.0046 13.4489 15.8515 13.5681 15.7819L13.3162 15.35C12.9584 15.5588 12.8375 16.018 13.0463 16.3758L13.4781 16.1238ZM13.6645 16.4434L13.4781 16.1238L13.0463 16.3758L13.2326 16.6953L13.6645 16.4434ZM20.1124 12.3775L13.3223 16.3536L13.5749 16.7851L20.3651 12.8089L20.1124 12.3775ZM19.843 12.411L20.0228 12.7192L20.4547 12.4672L20.2749 12.1591L19.843 12.411ZM14.0788 17.6488L20.869 13.6727L20.6163 13.2413L13.8261 17.2174L14.0788 17.6488ZM17.1993 22.5029L14.1684 17.3071L13.7365 17.5591L16.7674 22.7549L17.1993 22.5029ZM17.3799 22.6245C17.3043 22.6137 17.2378 22.5689 17.1993 22.5029L16.7674 22.7549C16.8828 22.9528 17.0824 23.087 17.3092 23.1194L17.3799 22.6245ZM20.8986 23.1271L17.3799 22.6245L17.3092 23.1194L20.8279 23.6221L20.8986 23.1271ZM22.1518 23.9592C21.8806 23.5073 21.4203 23.2017 20.8986 23.1271L20.8279 23.6221C21.2006 23.6753 21.5294 23.8937 21.723 24.2164L22.1518 23.9592ZM23.6764 26.5002L22.1518 23.9592L21.723 24.2164L23.2476 26.7574L23.6764 26.5002ZM24.8708 26.3788H23.462V26.8788H24.8708V26.3788ZM22.7495 23.4205L24.6538 26.7528L25.0879 26.5048L23.1837 23.1724L22.7495 23.4205ZM22.6088 21.9988C22.4513 22.4711 22.5025 22.9882 22.7495 23.4205L23.1837 23.1724C23.0072 22.8636 22.9707 22.4943 23.0831 22.1569L22.6088 21.9988ZM23.6011 19.022L22.6088 21.9988L23.0831 22.1569L24.0754 19.1801L23.6011 19.022ZM23.5798 18.8169C23.6161 18.879 23.6238 18.9537 23.6011 19.022L24.0754 19.1801C24.1436 18.9754 24.1204 18.7513 24.0117 18.565L23.5798 18.8169ZM20.5267 13.583L23.5798 18.8169L24.0117 18.565L20.9586 13.331L20.5267 13.583ZM23.6178 22.9243L25.8055 26.7528L26.2396 26.5048L24.0519 22.6762L23.6178 22.9243ZM23.5575 22.315C23.49 22.5175 23.5119 22.7391 23.6178 22.9243L24.0519 22.6762C24.0166 22.6145 24.0093 22.5406 24.0318 22.4732L23.5575 22.315ZM24.5497 19.3382L23.5575 22.315L24.0318 22.4732L25.0241 19.4963L24.5497 19.3382ZM24.4436 18.3131C24.6248 18.6236 24.6634 18.9971 24.5497 19.3382L25.0241 19.4963C25.1833 19.0188 25.1291 18.4959 24.8755 18.0611L24.4436 18.3131ZM21.1381 12.6465L24.4436 18.3131L24.8755 18.0611L21.57 12.3945L21.1381 12.6465ZM20.7068 11.9071L21.1381 12.6465L21.57 12.3945L21.1387 11.6552L20.7068 11.9071ZM18.9973 11.4572C19.5936 11.1094 20.359 11.3108 20.7068 11.9071L21.1387 11.6552C20.6517 10.8203 19.5802 10.5384 18.7453 11.0253L18.9973 11.4572ZM13.0643 14.9182L18.9973 11.4572L18.7453 11.0253L12.8123 14.4863L13.0643 14.9182ZM12.6144 16.6277C12.2665 16.0314 12.4679 15.266 13.0643 14.9182L12.8123 14.4863C11.9775 14.9733 11.6955 16.0448 12.1825 16.8796L12.6144 16.6277ZM13.0531 17.3798L12.6144 16.6277L12.1825 16.8796L12.6212 17.6318L13.0531 17.3798ZM16.3355 23.0068L13.0531 17.3798L12.6212 17.6318L15.9036 23.2587L16.3355 23.0068ZM17.2385 23.6144C16.8605 23.5604 16.5279 23.3366 16.3355 23.0068L15.9036 23.2587C16.173 23.7205 16.6386 24.0338 17.1677 24.1094L17.2385 23.6144ZM20.7572 24.1171L17.2385 23.6144L17.1677 24.1094L20.6865 24.6121L20.7572 24.1171ZM21.2943 24.4737C21.1781 24.28 20.9808 24.149 20.7572 24.1171L20.6865 24.6121C20.761 24.6227 20.8268 24.6664 20.8655 24.7309L21.2943 24.4737ZM22.5102 26.5002L21.2943 24.4737L20.8655 24.7309L22.0814 26.7574L22.5102 26.5002ZM19.1245 26.8788H22.2958V26.3788H19.1245V26.8788ZM18.2406 27.2449C18.475 27.0105 18.7929 26.8788 19.1245 26.8788V26.3788C18.6603 26.3788 18.2152 26.5632 17.887 26.8914L18.2406 27.2449ZM16.9112 28.5743L18.2406 27.2449L17.887 26.8914L16.5577 28.2207L16.9112 28.5743ZM16.3809 28.7939C16.5798 28.7939 16.7706 28.7149 16.9112 28.5743L16.5577 28.2207C16.5108 28.2676 16.4472 28.2939 16.3809 28.2939V28.7939ZM14.6416 28.7939H16.3809V28.2939H14.6416V28.7939ZM13.9916 29.4439C13.9916 29.085 14.2826 28.7939 14.6416 28.7939V28.2939C14.0065 28.2939 13.4916 28.8088 13.4916 29.4439H13.9916ZM13.9916 31.1975V29.4439H13.4916V31.1975H13.9916ZM14.6416 31.8475C14.2826 31.8475 13.9916 31.5565 13.9916 31.1975H13.4916C13.4916 31.8326 14.0065 32.3475 14.6416 32.3475V31.8475ZM16.1965 31.8475H14.6416V32.3475H16.1965V31.8475ZM16.9298 32.7546C17.0299 32.2877 16.674 31.8475 16.1965 31.8475V32.3475C16.3557 32.3475 16.4743 32.4942 16.4409 32.6499L16.9298 32.7546ZM15.5331 39.2729L16.9298 32.7546L16.4409 32.6499L15.0442 39.1681L15.5331 39.2729ZM16.7553 40.7848C15.9595 40.7848 15.3663 40.051 15.5331 39.2729L15.0442 39.1681C14.8107 40.2575 15.6412 41.2848 16.7553 41.2848V40.7848ZM18.4813 40.7848H16.7553V41.2848H18.4813V40.7848ZM19.7188 39.7116C19.6308 40.3274 19.1034 40.7848 18.4813 40.7848V41.2848C19.3522 41.2848 20.0906 40.6444 20.2137 39.7823L19.7188 39.7116ZM20.1732 36.5308L19.7188 39.7116L20.2137 39.7823L20.6681 36.6015L20.1732 36.5308ZM21.9021 36.3161H20.4207V36.8161H21.9021V36.3161ZM22.1521 36.0661C22.1521 36.2042 22.0402 36.3161 21.9021 36.3161V36.8161C22.3164 36.8161 22.6521 36.4803 22.6521 36.0661H22.1521ZM21.9021 35.8161C22.0402 35.8161 22.1521 35.9281 22.1521 36.0661H22.6521C22.6521 35.6519 22.3164 35.3161 21.9021 35.3161V35.8161ZM19.987 35.8161H21.9021V35.3161H19.987V35.8161ZM19.6864 35.4695C19.6603 35.6525 19.8022 35.8161 19.987 35.8161V35.3161C20.1065 35.3161 20.1983 35.422 20.1814 35.5402L19.6864 35.4695ZM20.1118 32.4914L19.6864 35.4695L20.1814 35.5402L20.6068 32.5621L20.1118 32.4914ZM20.8543 31.8475C20.4811 31.8475 20.1646 32.1219 20.1118 32.4914L20.6068 32.5621C20.6244 32.4389 20.7299 32.3475 20.8543 32.3475V31.8475ZM22.2315 31.8475H20.8543V32.3475H22.2315V31.8475ZM23.5211 34.1176L22.4551 31.9857L22.0079 32.2093L23.0739 34.3413L23.5211 34.1176ZM23.7553 34.4425C23.6603 34.3475 23.5812 34.2378 23.5211 34.1176L23.0739 34.3413C23.158 34.5095 23.2687 34.6631 23.4017 34.7961L23.7553 34.4425ZM24.9173 35.6045L23.7553 34.4425L23.4017 34.7961L24.5637 35.9581L24.9173 35.6045ZM25.2708 35.6045C25.1732 35.7022 25.0149 35.7022 24.9173 35.6045L24.5637 35.9581C24.8566 36.251 25.3315 36.251 25.6244 35.9581L25.2708 35.6045ZM25.2708 35.251C25.3685 35.3486 25.3685 35.5069 25.2708 35.6045L25.6244 35.9581C25.9173 35.6652 25.9173 35.1903 25.6244 34.8974L25.2708 35.251ZM24.1088 34.089L25.2708 35.251L25.6244 34.8974L24.4624 33.7354L24.1088 34.089ZM23.9683 33.894C24.0044 33.9661 24.0518 34.032 24.1088 34.089L24.4624 33.7354C24.4434 33.7164 24.4275 33.6945 24.4155 33.6704L23.9683 33.894ZM23.1259 32.2093L23.9683 33.894L24.4155 33.6704L23.5731 31.9857L23.1259 32.2093ZM28.9243 31.8475H23.3495V32.3475H28.9243V31.8475ZM29.8395 31.8475H28.9243V32.3475H29.8395V31.8475ZM31.0757 30.7838C30.9859 31.3857 30.4664 31.8475 29.8395 31.8475V32.3475C30.7177 32.3475 31.4444 31.7008 31.5702 30.8576L31.0757 30.7838ZM32.1162 30.5707H31.323V31.0707H32.1162V30.5707ZM32.3662 30.3207C32.3662 30.4588 32.2543 30.5707 32.1162 30.5707V31.0707C32.5304 31.0707 32.8662 30.7349 32.8662 30.3207H32.3662ZM32.1162 30.0707C32.2543 30.0707 32.3662 30.1826 32.3662 30.3207H32.8662C32.8662 29.9065 32.5304 29.5707 32.1162 29.5707V30.0707ZM31.3395 30.0707H32.1162V29.5707H31.3395V30.0707ZM31.0895 28.2672V29.8207H31.5895V28.2672H31.0895ZM32.1162 28.0172H31.3395V28.5172H32.1162V28.0172ZM32.3662 27.7672C32.3662 27.9053 32.2543 28.0172 32.1162 28.0172V28.5172C32.5304 28.5172 32.8662 28.1814 32.8662 27.7672H32.3662ZM32.1162 27.5172C32.2543 27.5172 32.3662 27.6291 32.3662 27.7672H32.8662C32.8662 27.353 32.5304 27.0172 32.1162 27.0172V27.5172ZM31.2241 27.5172H32.1162V27.0172H31.2241V27.5172ZM30.2011 26.8788C30.5514 26.8788 30.8548 27.0815 30.9995 27.3771L31.4486 27.1572C31.2231 26.6968 30.7495 26.3788 30.2011 26.3788V26.8788ZM28.9243 26.8788H30.2011V26.3788H28.9243V26.8788ZM28.2859 26.8788H28.9243V26.3788H28.2859V26.8788ZM26.3708 26.8788H28.2859V26.3788H26.3708V26.8788ZM26.0226 26.8788H26.3708V26.3788H26.0226V26.8788ZM30.2011 27.8788C30.1394 27.8788 30.0895 27.8288 30.0895 27.7672H30.5895C30.5895 27.5527 30.4156 27.3788 30.2011 27.3788V27.8788ZM29.4243 27.8788H30.2011V27.3788H29.4243V27.8788ZM29.6743 31.0975V27.6288H29.1743V31.0975H29.6743ZM29.8395 30.8475H29.4243V31.3475H29.8395V30.8475ZM30.0895 30.5975C30.0895 30.7355 29.9775 30.8475 29.8395 30.8475V31.3475C30.2537 31.3475 30.5895 31.0117 30.5895 30.5975H30.0895ZM30.0895 30.3207V30.5975H30.5895V30.3207H30.0895ZM30.0895 27.7672V30.3207H30.5895V27.7672H30.0895ZM28.1743 27.6288V31.0975H28.6743V27.6288H28.1743ZM28.2859 27.8788H28.4243V27.3788H28.2859V27.8788ZM26.8708 27.8788H28.2859V27.3788H26.8708V27.8788ZM27.1208 29.6823V27.6288H26.6208V29.6823H27.1208ZM26.3708 30.4323C26.785 30.4323 27.1208 30.0965 27.1208 29.6823H26.6208C26.6208 29.8204 26.5089 29.9323 26.3708 29.9323V30.4323ZM25.6208 29.6823C25.6208 30.0965 25.9566 30.4323 26.3708 30.4323V29.9323C26.2327 29.9323 26.1208 29.8204 26.1208 29.6823H25.6208ZM25.6208 27.6288V29.6823H26.1208V27.6288H25.6208ZM25.7324 27.8788H25.8708V27.3788H25.7324V27.8788ZM23.1789 27.8788H25.7324V27.3788H23.1789V27.8788ZM19.1245 27.8788H23.1789V27.3788H19.1245V27.8788ZM18.9477 27.952C18.9946 27.9051 19.0582 27.8788 19.1245 27.8788V27.3788C18.9255 27.3788 18.7348 27.4578 18.5941 27.5985L18.9477 27.952ZM17.6183 29.2814L18.9477 27.952L18.5941 27.5985L17.2648 28.9278L17.6183 29.2814ZM16.3809 29.7939C16.845 29.7939 17.2901 29.6096 17.6183 29.2814L17.2648 28.9278C17.0304 29.1623 16.7124 29.2939 16.3809 29.2939V29.7939ZM14.7416 29.7939H16.3809V29.2939H14.7416V29.7939ZM14.9916 31.0975V29.5439H14.4916V31.0975H14.9916ZM16.1965 30.8475H14.7416V31.3475H16.1965V30.8475ZM17.9076 32.9641C18.1411 31.8748 17.3106 30.8475 16.1965 30.8475V31.3475C16.9923 31.3475 17.5855 32.0812 17.4187 32.8594L17.9076 32.9641ZM16.5109 39.4824L17.9076 32.9641L17.4187 32.8594L16.022 39.3776L16.5109 39.4824ZM16.7553 39.7848C16.5962 39.7848 16.4775 39.638 16.5109 39.4824L16.022 39.3776C15.9219 39.8445 16.2778 40.2848 16.7553 40.2848V39.7848ZM18.4813 39.7848H16.7553V40.2848H18.4813V39.7848ZM18.7288 39.5701C18.7112 39.6933 18.6057 39.7848 18.4813 39.7848V40.2848C18.8546 40.2848 19.171 40.0103 19.2238 39.6409L18.7288 39.5701ZM19.1854 36.3737L18.7288 39.5701L19.2238 39.6409L19.6804 36.4444L19.1854 36.3737ZM18.6964 35.3281C18.62 35.8635 18.8791 36.3599 19.3012 36.6216L19.5647 36.1966C19.3028 36.0343 19.1444 35.728 19.1914 35.3988L18.6964 35.3281ZM19.1219 32.35L18.6964 35.3281L19.1914 35.3988L19.6169 32.4207L19.1219 32.35ZM20.8543 30.8475C19.9834 30.8475 19.245 31.4878 19.1219 32.35L19.6169 32.4207C19.7048 31.8049 20.2322 31.3475 20.8543 31.3475V30.8475ZM21.6063 30.8475H20.8543V31.3475H21.6063V30.8475ZM20.6397 30.0984L21.3983 31.2361L21.8143 30.9588L21.0557 29.821L20.6397 30.0984ZM20.8477 29.0583C20.5031 29.2881 20.41 29.7537 20.6397 30.0984L21.0557 29.821C20.9792 29.7061 21.0102 29.5509 21.1251 29.4743L20.8477 29.0583ZM21.8878 29.2663C21.658 28.9217 21.1924 28.8285 20.8477 29.0583L21.1251 29.4743C21.24 29.3977 21.3952 29.4288 21.4718 29.5437L21.8878 29.2663ZM23.0161 30.9588L21.8878 29.2663L21.4718 29.5437L22.6001 31.2361L23.0161 30.9588ZM28.4243 30.8475H22.8081V31.3475H28.4243V30.8475ZM18.1832 44.6418V42.4499H17.6832V44.6418H18.1832ZM18.4332 44.8918C18.2951 44.8918 18.1832 44.7799 18.1832 44.6418H17.6832C17.6832 45.056 18.019 45.3918 18.4332 45.3918V44.8918ZM26.7729 44.8918H18.4332V45.3918H26.7729V44.8918ZM27.6276 45.1396C27.3458 44.9513 27.0365 44.8918 26.7729 44.8918V45.3918C26.9644 45.3918 27.17 45.4352 27.3499 45.5554L27.6276 45.1396ZM29.0359 47.557C29.0359 46.204 28.0329 45.4104 27.6276 45.1396L27.3499 45.5554C27.7256 45.8064 28.5359 46.4695 28.5359 47.557H29.0359ZM28.5912 49.1896C28.8239 48.7412 29.0359 48.1711 29.0359 47.557H28.5359C28.5359 48.0599 28.3607 48.5482 28.1474 48.9592L28.5912 49.1896ZM27.8623 50.2787C28.07 50.0267 28.3551 49.6444 28.5912 49.1896L28.1474 48.9592C27.9329 49.3725 27.6708 49.7249 27.4765 49.9607L27.8623 50.2787ZM26.5947 50.8605C27.0515 50.8605 27.5318 50.6797 27.8623 50.2787L27.4765 49.9607C27.2541 50.2305 26.9242 50.3605 26.5947 50.3605V50.8605ZM18.412 50.8605H26.5947V50.3605H18.412V50.8605ZM18.3314 50.8788C18.3305 50.8796 18.3508 50.8605 18.412 50.8605V50.3605C18.2433 50.3605 18.0934 50.4155 17.9875 50.5158L18.3314 50.8788ZM17.5374 52.1317C17.5688 51.9124 17.6801 51.6784 17.8349 51.4524C17.9882 51.2288 18.1733 51.0285 18.3314 50.8788L17.9875 50.5158C17.8118 50.6822 17.6011 50.9091 17.4225 51.1698C17.2454 51.4282 17.0889 51.7356 17.0425 52.061L17.5374 52.1317ZM17.7567 52.9744C17.5753 52.6371 17.5062 52.3501 17.5374 52.1317L17.0425 52.061C16.9896 52.4307 17.1118 52.8309 17.3163 53.2113L17.7567 52.9744ZM18.3555 53.7985C18.1717 53.5968 17.9325 53.3012 17.7567 52.9744L17.3163 53.2113C17.519 53.588 17.7877 53.9177 17.986 54.1353L18.3555 53.7985ZM18.4579 53.8292C18.3902 53.8292 18.3618 53.8054 18.3556 53.7985L17.986 54.1353C18.099 54.2593 18.2683 54.3292 18.4579 54.3292V53.8292ZM27.924 53.8292H18.4579V54.3292H27.924V53.8292ZM29.674 55.5792C29.674 54.6127 28.8905 53.8292 27.924 53.8292V54.3292C28.6144 54.3292 29.174 54.8888 29.174 55.5792H29.674ZM29.674 57.1327V55.5792H29.174V57.1327H29.674ZM28.424 57.3827H29.424V56.8827H28.424V57.3827ZM28.174 55.5792V57.1327H28.674V55.5792H28.174ZM27.924 55.3292C28.0621 55.3292 28.174 55.4411 28.174 55.5792H28.674C28.674 55.1649 28.3382 54.8292 27.924 54.8292V55.3292ZM18.4579 55.3292H27.924V54.8292H18.4579V55.3292ZM17.2469 54.8089C17.5763 55.1703 18.0296 55.3292 18.4579 55.3292V54.8292C18.149 54.8292 17.8377 54.7149 17.6165 54.4721L17.2469 54.8089ZM16.4356 53.6849C16.692 54.1616 17.0196 54.5595 17.2469 54.8089L17.6165 54.4721C17.4036 54.2386 17.1055 53.8748 16.876 53.4481L16.4356 53.6849ZM16.0525 51.9196C15.9564 52.5925 16.185 53.2189 16.4356 53.6849L16.876 53.4481C16.6483 53.0249 16.473 52.5116 16.5475 51.9903L16.0525 51.9196ZM17.2999 49.7897C16.9458 50.1251 16.1954 50.9194 16.0525 51.9196L16.5475 51.9903C16.6644 51.1721 17.298 50.4802 17.6437 50.1528L17.2999 49.7897ZM18.412 49.3605C18.0329 49.3605 17.622 49.4846 17.2999 49.7897L17.6437 50.1528C17.8577 49.95 18.1382 49.8605 18.412 49.8605V49.3605ZM26.5947 49.3605H18.412V49.8605H26.5947V49.3605ZM26.7048 49.3246C26.6972 49.3338 26.6669 49.3605 26.5947 49.3605V49.8605C26.7971 49.8605 26.9765 49.7811 27.0906 49.6427L26.7048 49.3246ZM27.2598 48.4985C27.0886 48.8285 26.8725 49.1212 26.7048 49.3246L27.0906 49.6427C27.2716 49.4231 27.5107 49.1005 27.7036 48.7289L27.2598 48.4985ZM27.5359 47.557C27.5359 47.8375 27.4345 48.162 27.2598 48.4985L27.7036 48.7289C27.8976 48.3551 28.0359 47.9487 28.0359 47.557H27.5359ZM26.7943 46.3869C27.1079 46.5964 27.5359 46.9986 27.5359 47.557H28.0359C28.0359 46.7346 27.4176 46.2019 27.0721 45.9711L26.7943 46.3869ZM26.7729 46.3918C26.7953 46.3918 26.8067 46.3944 26.8095 46.3952C26.8125 46.396 26.8061 46.3947 26.7944 46.3869L27.0721 45.9711C26.9944 45.9192 26.8925 45.8918 26.7729 45.8918V46.3918ZM18.4332 46.3918H26.7729V45.8918H18.4332V46.3918ZM16.6832 44.6418C16.6832 45.6083 17.4667 46.3918 18.4332 46.3918V45.8918C17.7428 45.8918 17.1832 45.3322 17.1832 44.6418H16.6832ZM16.6832 42.4499V44.6418H17.1832V42.4499H16.6832ZM17.9332 42.1999H16.9332V42.6999H17.9332V42.1999ZM49.1431 23.9841L54.4359 27.0399L54.6859 26.6069L49.3931 23.5511L49.1431 23.9841ZM45.3931 23.9841C46.5533 23.3142 47.9828 23.3142 49.1431 23.9841L49.3931 23.5511C48.0781 22.7919 46.458 22.7919 45.1431 23.5511L45.3931 23.9841ZM40.1003 27.0399L45.3931 23.9841L45.1431 23.5511L39.8503 26.6069L40.1003 27.0399ZM38.2253 30.2875C38.2253 28.9477 38.94 27.7097 40.1003 27.0399L39.8503 26.6069C38.5353 27.3661 37.7253 28.7691 37.7253 30.2875H38.2253ZM38.2253 36.3991V30.2875H37.7253V36.3991H38.2253ZM40.1003 39.6467C38.94 38.9768 38.2253 37.7388 38.2253 36.3991H37.7253C37.7253 37.9174 38.5353 39.3205 39.8503 40.0797L40.1003 39.6467ZM45.3931 42.7025L40.1003 39.6467L39.8503 40.0797L45.1431 43.1355L45.3931 42.7025ZM49.1431 42.7025C47.9828 43.3723 46.5533 43.3723 45.3931 42.7025L45.1431 43.1355C46.458 43.8947 48.0781 43.8947 49.3931 43.1355L49.1431 42.7025ZM54.4359 39.6467L49.1431 42.7025L49.3931 43.1355L54.6859 40.0797L54.4359 39.6467ZM56.3109 36.3991C56.3109 37.7388 55.5961 38.9768 54.4359 39.6467L54.6859 40.0797C56.0008 39.3205 56.8109 37.9175 56.8109 36.3991H56.3109ZM56.3109 30.2875V36.3991H56.8109V30.2875H56.3109ZM54.4359 27.0399C55.5961 27.7098 56.3109 28.9477 56.3109 30.2875H56.8109C56.8109 28.7691 56.0008 27.3661 54.6859 26.6069L54.4359 27.0399ZM48.8931 24.4171C47.8875 23.8365 46.6486 23.8365 45.6431 24.4171L45.8931 24.8501C46.7439 24.3589 47.7922 24.3589 48.6431 24.8501L48.8931 24.4171ZM54.1859 27.4729L48.8931 24.4171L48.6431 24.8501L53.9359 27.9059L54.1859 27.4729ZM55.8109 30.2875C55.8109 29.1264 55.1914 28.0534 54.1859 27.4729L53.9359 27.9059C54.7867 28.3971 55.3109 29.305 55.3109 30.2875H55.8109ZM55.8109 36.3991V30.2875H55.3109V36.3991H55.8109ZM54.1859 39.2137C55.1914 38.6331 55.8109 37.5602 55.8109 36.3991H55.3109C55.3109 37.3816 54.7867 38.2894 53.9359 38.7806L54.1859 39.2137ZM48.8931 42.2695L54.1859 39.2137L53.9359 38.7806L48.6431 41.8364L48.8931 42.2695ZM45.6431 42.2695C46.6486 42.85 47.8875 42.85 48.8931 42.2695L48.6431 41.8364C47.7922 42.3277 46.7439 42.3277 45.8931 41.8364L45.6431 42.2695ZM40.3503 39.2137L45.6431 42.2695L45.8931 41.8364L40.6003 38.7806L40.3503 39.2137ZM38.7253 36.3991C38.7253 37.5602 39.3447 38.6331 40.3503 39.2137L40.6003 38.7806C39.7494 38.2894 39.2253 37.3816 39.2253 36.3991H38.7253ZM38.7253 30.2875V36.3991H39.2253V30.2875H38.7253ZM40.3503 27.4729C39.3447 28.0534 38.7253 29.1264 38.7253 30.2875H39.2253C39.2253 29.305 39.7494 28.3971 40.6003 27.9059L40.3503 27.4729ZM45.6431 24.4171L40.3503 27.4729L40.6003 27.9059L45.8931 24.8501L45.6431 24.4171ZM46.6297 28.1246C46.4178 28.1246 46.2158 28.2143 46.0736 28.3714L46.4443 28.7069C46.4917 28.6545 46.5591 28.6246 46.6297 28.6246V28.1246ZM47.9065 28.1246H46.6297V28.6246H47.9065V28.1246ZM48.4626 28.3714C48.3204 28.2143 48.1184 28.1246 47.9065 28.1246V28.6246C47.9771 28.6246 48.0444 28.6545 48.0918 28.7069L48.4626 28.3714ZM48.6527 28.9492C48.6738 28.7384 48.6047 28.5285 48.4626 28.3714L48.0918 28.7069C48.1392 28.7592 48.1623 28.8292 48.1552 28.8995L48.6527 28.9492ZM48.0144 35.333L48.6527 28.9492L48.1552 28.8995L47.5168 35.2833L48.0144 35.333ZM47.2681 36.0084C47.6534 36.0084 47.976 35.7164 48.0144 35.333L47.5168 35.2833C47.5041 35.4111 47.3965 35.5084 47.2681 35.5084V36.0084ZM46.5218 35.333C46.5601 35.7164 46.8828 36.0084 47.2681 36.0084V35.5084C47.1396 35.5084 47.0321 35.4111 47.0193 35.2833L46.5218 35.333ZM45.8834 28.9492L46.5218 35.333L47.0193 35.2833L46.3809 28.8995L45.8834 28.9492ZM46.0736 28.3714C45.9314 28.5285 45.8623 28.7384 45.8834 28.9492L46.3809 28.8995C46.3739 28.8292 46.3969 28.7592 46.4443 28.7069L46.0736 28.3714ZM47.5168 30.2086L47.431 29.3497L46.9334 29.3995L47.0193 30.2584L47.5168 30.2086ZM47.1052 29.3497L47.0193 30.2086L47.5168 30.2584L47.6027 29.3995L47.1052 29.3497ZM47.1822 29.6246H47.354V29.1246H47.1822V29.6246ZM47.6565 38.4503C47.6565 38.6648 47.4826 38.8387 47.2681 38.8387V39.3387C47.7587 39.3387 48.1565 38.941 48.1565 38.4503H47.6565ZM47.2681 38.0619C47.4826 38.0619 47.6565 38.2358 47.6565 38.4503H48.1565C48.1565 37.9597 47.7587 37.5619 47.2681 37.5619V38.0619ZM46.8797 38.4503C46.8797 38.2358 47.0536 38.0619 47.2681 38.0619V37.5619C46.7774 37.5619 46.3797 37.9597 46.3797 38.4503H46.8797ZM47.2681 38.8387C47.0536 38.8387 46.8797 38.6648 46.8797 38.4503H46.3797C46.3797 38.941 46.7774 39.3387 47.2681 39.3387V38.8387Z" fill="#A5D4FF"/>
</svg>
