<svg width="66" height="66" viewBox="0 0 66 66" fill="none" xmlns="http://www.w3.org/2000/svg">
<circle cx="33" cy="33" r="33" fill="#8D54A8"/>
<path fill-rule="evenodd" clip-rule="evenodd" d="M19.5208 16.0684C19.746 15.937 20.0316 16.0015 20.1799 16.21L15.0515 19.2131C14.9365 18.9797 15.0201 18.6937 15.2483 18.5606L19.5208 16.0684ZM15.5543 20.0775L20.6855 17.0728L22.9727 20.9937C23.0452 21.1179 23.0606 21.2673 23.0152 21.4038L22.2996 23.5503C22.1647 23.9552 22.2086 24.3984 22.4203 24.7689L23.771 27.1326H22.9157L21.8062 25.2835C21.5738 24.8962 21.1793 24.6342 20.7321 24.5703L18.182 24.206C18.0308 24.1844 17.8978 24.0949 17.8208 23.963L15.5543 20.0775ZM23.2885 24.2727L24.9228 27.1326H25.1326H26.6326H27.1326H28.1326C28.5027 27.1326 28.8259 27.3337 28.9988 27.6326H29.6326C29.9087 27.6326 30.1326 27.8565 30.1326 28.1326C30.1326 28.4088 29.9087 28.6326 29.6326 28.6326H29.1326V29.6326H29.6326C29.9087 29.6326 30.1326 29.8565 30.1326 30.1326C30.1326 30.4088 29.9087 30.6326 29.6326 30.6326H29.0472C28.8413 31.2152 28.2857 31.6326 27.6326 31.6326H27.1326H22.9416L23.5072 32.7639C23.5313 32.8119 23.5629 32.8558 23.6009 32.8938L24.4862 33.7791C24.6814 33.9743 24.6814 34.2909 24.4862 34.4862C24.2909 34.6814 23.9743 34.6814 23.779 34.4862L22.8938 33.6009C22.7798 33.4869 22.6849 33.3553 22.6128 33.2111L21.8236 31.6326H20.9999C20.7511 31.6326 20.5401 31.8156 20.5049 32.0619L20.2091 34.1326L20.2083 34.1383L20.2235 34.1409L20.5103 34.305C20.4921 34.284 20.4721 34.2645 20.4506 34.2468C20.3864 34.1938 20.3087 34.1565 20.2235 34.1409L20.2091 34.1326H21.6326C21.9087 34.1326 22.1326 34.3565 22.1326 34.6326C22.1326 34.9088 21.9087 35.1326 21.6326 35.1326H20.5662L20.2502 37.3447C20.1447 38.0837 19.5118 38.6326 18.7653 38.6326H17.8696C16.9146 38.6326 16.2028 37.7521 16.4029 36.8183L17.3845 32.2374C17.4512 31.9261 17.2139 31.6326 16.8956 31.6326H16.0326C15.5355 31.6326 15.1326 31.2297 15.1326 30.7326V29.5326C15.1326 29.0356 15.5355 28.6326 16.0326 28.6326H17.2184C17.351 28.6326 17.4782 28.5799 17.5719 28.4862L18.4862 27.572C18.7675 27.2907 19.149 27.1326 19.5468 27.1326H21.7495L20.9487 25.798C20.8713 25.6689 20.7398 25.5816 20.5907 25.5603L18.0406 25.196C17.587 25.1312 17.1879 24.8626 16.9571 24.4669L14.439 20.1502L14.2046 19.7483C13.7872 19.0328 14.0289 18.1143 14.7444 17.6969L19.0169 15.2046C19.7325 14.7872 20.6509 15.0289 21.0684 15.7445L21.2969 16.1363L23.8365 20.4898C24.0539 20.8625 24.1003 21.3107 23.9639 21.72L23.2483 23.8666C23.2033 24.0015 23.218 24.1492 23.2885 24.2727ZM27.6326 28.1326H28.1326V30.1326C28.1326 30.4088 27.9087 30.6326 27.6326 30.6326V28.1326ZM26.6326 28.1326V30.6326H22.4002L21.5486 29.3553C21.3954 29.1255 21.085 29.0634 20.8552 29.2166C20.6255 29.3698 20.5634 29.6802 20.7166 29.91L21.1983 30.6326H20.9999C20.2534 30.6326 19.6205 31.1815 19.515 31.9205L19.2083 34.0669C19.1573 34.4241 19.3146 34.7573 19.5817 34.953L19.2603 37.2033C19.2251 37.4497 19.0141 37.6326 18.7653 37.6326H17.8696C17.5513 37.6326 17.314 37.3391 17.3807 37.0279L18.3623 32.4469C18.5624 31.5131 17.8506 30.6326 16.8956 30.6326H16.1326V29.6326H17.2184C17.6162 29.6326 17.9977 29.4746 18.279 29.1933L19.1933 28.2791C19.287 28.1853 19.4142 28.1326 19.5468 28.1326H22.6326H24.6326V29.6326C24.6326 29.9088 24.8565 30.1326 25.1326 30.1326C25.4087 30.1326 25.6326 29.9088 25.6326 29.6326V28.1326H26.6326ZM33.3205 33.4915C34.581 33.2199 37.5552 32.6326 39.6326 32.6326C41.71 32.6326 44.6842 33.2199 45.9447 33.4915C46.1166 33.5285 46.2558 33.6602 46.3037 33.8397L47.9818 40.1326H31.2834L32.9615 33.8397C33.0094 33.6602 33.1486 33.5285 33.3205 33.4915ZM47.2699 33.582L49.0167 40.1326H49.6326C50.461 40.1326 51.1326 40.8042 51.1326 41.6326V42.5146L51.3946 43.0385C51.5725 43.3944 51.6018 43.8063 51.476 44.1837L51.1326 45.2138V46.1326C51.1326 46.961 50.461 47.6326 49.6326 47.6326V49.6326C49.6326 50.461 48.961 51.1326 48.1326 51.1326H46.1326C45.3042 51.1326 44.6326 50.461 44.6326 49.6326V47.6326H42.6326H36.6326H34.6326V49.6326C34.6326 50.461 33.961 51.1326 33.1326 51.1326H31.6326C30.8042 51.1326 30.1326 50.461 30.1326 49.6326V47.6326C29.3042 47.6326 28.6326 46.961 28.6326 46.1326V45.2138L28.2892 44.1837C28.1634 43.8063 28.1927 43.3944 28.3706 43.0385L28.6326 42.5146V41.6326C28.6326 40.8042 29.3042 40.1326 30.1326 40.1326H30.2485L31.9953 33.582C32.1373 33.0494 32.5613 32.6321 33.1099 32.5139C34.362 32.2441 37.4343 31.6326 39.6326 31.6326C41.8309 31.6326 44.9032 32.2441 46.1553 32.5139C46.7039 32.6321 47.1279 33.0494 47.2699 33.582ZM45.1326 46.6326H44.0472C44.1025 46.4762 44.1326 46.3079 44.1326 46.1326V43.4096C44.1326 43.1377 44.0587 42.871 43.9188 42.6379L43.0157 41.1326H48.6326H49.6326C49.9087 41.1326 50.1326 41.3565 50.1326 41.6326V42.1326H46.1326C45.3042 42.1326 44.6326 42.8042 44.6326 43.6326V44.1326C44.6326 44.961 45.3042 45.6326 46.1326 45.6326H50.1326V46.1326C50.1326 46.4088 49.9087 46.6326 49.6326 46.6326H49.1326H45.1326ZM37.4157 41.1326H41.8495L43.0613 43.1524C43.108 43.2301 43.1326 43.319 43.1326 43.4096V46.1326C43.1326 46.4088 42.9087 46.6326 42.6326 46.6326H36.6326C36.3565 46.6326 36.1326 46.4088 36.1326 46.1326V43.4096C36.1326 43.319 36.1572 43.2301 36.2038 43.1524L37.4157 41.1326ZM35.1326 46.1326C35.1326 46.3079 35.1627 46.4762 35.2179 46.6326H34.1326H30.6326H30.1326C29.8565 46.6326 29.6326 46.4088 29.6326 46.1326V45.6326H33.1326C33.961 45.6326 34.6326 44.961 34.6326 44.1326V43.6326C34.6326 42.8042 33.961 42.1326 33.1326 42.1326H29.6326V41.6326C29.6326 41.3565 29.8565 41.1326 30.1326 41.1326H30.6326H36.2495L35.3464 42.6379C35.2065 42.871 35.1326 43.1377 35.1326 43.4096V46.1326ZM50.5273 43.8675L50.2722 44.6326H46.1326C45.8565 44.6326 45.6326 44.4088 45.6326 44.1326V43.6326C45.6326 43.3565 45.8565 43.1326 46.1326 43.1326H50.3236L50.5001 43.4857C50.5594 43.6043 50.5692 43.7417 50.5273 43.8675ZM33.1326 44.6326H29.493L29.2379 43.8675C29.196 43.7417 29.2057 43.6043 29.2651 43.4857L29.4416 43.1326H33.1326C33.4087 43.1326 33.6326 43.3565 33.6326 43.6326V44.1326C33.6326 44.4088 33.4087 44.6326 33.1326 44.6326ZM45.6326 47.6326H48.6326V49.6326C48.6326 49.9088 48.4087 50.1326 48.1326 50.1326H46.1326C45.8565 50.1326 45.6326 49.9088 45.6326 49.6326V47.6326ZM31.1326 47.6326H33.6326V49.6326C33.6326 49.9088 33.4087 50.1326 33.1326 50.1326H31.6326C31.3565 50.1326 31.1326 49.9088 31.1326 49.6326V47.6326ZM18.6324 41.1326V39.6326H17.6324V41.1326C17.6324 41.961 18.3039 42.6326 19.1324 42.6326H25.3963C25.4812 42.6326 25.5258 42.6519 25.5456 42.6658C25.8013 42.8452 26.1326 43.1736 26.1326 43.6326C26.1326 44.1052 25.8026 44.6442 25.5126 45.0098C25.4576 45.079 25.3567 45.1326 25.2182 45.1326H18.9728C18.648 45.1326 18.2965 45.2384 18.0279 45.503C17.7456 45.7811 17.2385 46.355 17.1375 47.0619C17.0699 47.5354 17.2183 47.9817 17.3954 48.3285C17.5753 48.6808 17.8108 48.9814 17.9892 49.1845C18.2638 49.4972 18.6518 49.6326 19.0187 49.6326H26.1324C26.4085 49.6326 26.6324 49.8565 26.6324 50.1326V51.1326H27.6324V50.1326C27.6324 49.3042 26.9608 48.6326 26.1324 48.6326H19.0187C18.8884 48.6326 18.794 48.5855 18.7405 48.5246C18.5918 48.3553 18.4141 48.1246 18.286 47.8738C18.1552 47.6175 18.1009 47.389 18.1275 47.2033C18.1788 46.844 18.4712 46.47 18.7297 46.2154C18.7756 46.1701 18.8562 46.1326 18.9728 46.1326H25.2182C25.6101 46.1326 26.0213 45.9775 26.2959 45.6313C26.5982 45.2503 27.1326 44.4746 27.1326 43.6326C27.1326 42.6665 26.448 42.0774 26.1199 41.8472C25.8856 41.6828 25.6219 41.6326 25.3963 41.6326H19.1324C18.8562 41.6326 18.6324 41.4088 18.6324 41.1326Z" fill="#E6B0FF"/>
<path d="M20.1799 16.21L20.3062 16.4258L20.5419 16.2878L20.3836 16.0652L20.1799 16.21ZM19.5208 16.0684L19.6467 16.2843V16.2843L19.5208 16.0684ZM15.0515 19.2131L14.8272 19.3236L14.946 19.5646L15.1778 19.4288L15.0515 19.2131ZM15.2483 18.5606L15.3743 18.7766L15.2483 18.5606ZM20.6855 17.0728L20.9015 16.9468L20.7753 16.7305L20.5592 16.8571L20.6855 17.0728ZM15.5543 20.0775L15.428 19.8618L15.2126 19.9879L15.3383 20.2035L15.5543 20.0775ZM22.9727 20.9937L23.1887 20.8677L23.1887 20.8677L22.9727 20.9937ZM23.0152 21.4038L22.778 21.3247L23.0152 21.4038ZM22.2996 23.5503L22.5368 23.6294L22.2996 23.5503ZM22.4203 24.7689L22.6374 24.6449L22.4203 24.7689ZM23.771 27.1326V27.3826H24.2018L23.9881 27.0086L23.771 27.1326ZM22.9157 27.1326L22.7013 27.2612L22.7741 27.3826H22.9157V27.1326ZM21.8062 25.2835L22.0206 25.1549L21.8062 25.2835ZM20.7321 24.5703L20.6968 24.8178L20.7321 24.5703ZM18.182 24.206L18.2174 23.9585H18.2174L18.182 24.206ZM17.8208 23.963L18.0368 23.837L17.8208 23.963ZM24.9228 27.1326L24.7057 27.2567L24.7777 27.3826H24.9228V27.1326ZM23.2885 24.2727L23.5056 24.1487H23.5056L23.2885 24.2727ZM28.9988 27.6326L28.7824 27.7578L28.8546 27.8826H28.9988V27.6326ZM29.1326 28.6326V28.3826H28.8826V28.6326H29.1326ZM29.1326 29.6326H28.8826V29.8826H29.1326V29.6326ZM29.0472 30.6326V30.3826H28.8705L28.8115 30.5493L29.0472 30.6326ZM22.9416 31.6326V31.3826H22.5371L22.718 31.7444L22.9416 31.6326ZM23.5072 32.7639L23.2836 32.8757L23.2836 32.8757L23.5072 32.7639ZM23.6009 32.8938L23.4241 33.0706L23.6009 32.8938ZM24.4862 33.7791L24.6629 33.6023L24.4862 33.7791ZM24.4862 34.4862L24.6629 34.6629H24.6629L24.4862 34.4862ZM23.779 34.4862L23.6023 34.6629H23.6023L23.779 34.4862ZM22.6128 33.2111L22.3892 33.3229L22.6128 33.2111ZM21.8236 31.6326L22.0472 31.5208L21.9781 31.3826H21.8236V31.6326ZM20.5049 32.0619L20.7524 32.0973L20.5049 32.0619ZM20.2091 34.1326L19.9616 34.0973L19.9616 34.0973L20.2091 34.1326ZM20.2083 34.1383L19.9608 34.103L19.9263 34.3445L20.1669 34.3849L20.2083 34.1383ZM20.5103 34.305L20.3861 34.522L20.6991 34.1411L20.5103 34.305ZM20.4506 34.2468L20.2915 34.4396L20.2915 34.4396L20.4506 34.2468ZM20.5662 35.1326V34.8826H20.3494L20.3188 35.0973L20.5662 35.1326ZM20.2502 37.3447L20.0027 37.3094L20.2502 37.3447ZM16.4029 36.8183L16.6473 36.8707L16.4029 36.8183ZM17.3845 32.2374L17.1401 32.185L17.3845 32.2374ZM17.5719 28.4862L17.7487 28.6629H17.7487L17.5719 28.4862ZM18.4862 27.572L18.3094 27.3952L18.4862 27.572ZM21.7495 27.1326V27.3826H22.1911L21.9639 27.004L21.7495 27.1326ZM20.9487 25.798L21.1631 25.6694L20.9487 25.798ZM20.5907 25.5603L20.6261 25.3128H20.6261L20.5907 25.5603ZM18.0406 25.196L18.0052 25.4435H18.0052L18.0406 25.196ZM16.9571 24.4669L16.7411 24.5928L16.9571 24.4669ZM14.439 20.1502L14.6549 20.0242V20.0242L14.439 20.1502ZM14.2046 19.7483L14.4205 19.6224H14.4205L14.2046 19.7483ZM14.7444 17.6969L14.8704 17.9128L14.7444 17.6969ZM19.0169 15.2046L19.1429 15.4205V15.4205L19.0169 15.2046ZM21.0684 15.7445L21.2843 15.6185V15.6185L21.0684 15.7445ZM21.2969 16.1363L21.081 16.2623L21.2969 16.1363ZM23.8365 20.4898L23.6206 20.6158L23.8365 20.4898ZM23.9639 21.72L24.201 21.799L23.9639 21.72ZM23.2483 23.8666L23.0112 23.7875L23.2483 23.8666ZM28.1326 28.1326H28.3826V27.8826H28.1326V28.1326ZM27.6326 28.1326V27.8826H27.3826V28.1326H27.6326ZM27.6326 30.6326H27.3826V30.8826H27.6326V30.6326ZM26.6326 30.6326V30.8826H26.8826V30.6326H26.6326ZM26.6326 28.1326H26.8826V27.8826H26.6326V28.1326ZM22.4002 30.6326L22.1922 30.7713L22.2664 30.8826H22.4002V30.6326ZM21.5486 29.3553L21.7566 29.2166V29.2166L21.5486 29.3553ZM20.8552 29.2166L20.9939 29.4246L20.8552 29.2166ZM20.7166 29.91L20.5086 30.0486L20.7166 29.91ZM21.1983 30.6326V30.8826H21.6655L21.4064 30.4939L21.1983 30.6326ZM19.515 31.9205L19.2675 31.8851L19.515 31.9205ZM19.2083 34.0669L19.4558 34.1023L19.2083 34.0669ZM19.5817 34.953L19.8292 34.9884L19.8504 34.84L19.7295 34.7514L19.5817 34.953ZM19.2603 37.2033L19.0128 37.168L19.2603 37.2033ZM17.3807 37.0279L17.1362 36.9755L17.3807 37.0279ZM18.3623 32.4469L18.6068 32.4993L18.3623 32.4469ZM16.1326 30.6326H15.8826V30.8826H16.1326V30.6326ZM16.1326 29.6326V29.3826H15.8826V29.6326H16.1326ZM18.279 29.1933L18.4558 29.3701H18.4558L18.279 29.1933ZM19.1933 28.2791L19.0165 28.1023H19.0165L19.1933 28.2791ZM24.6326 28.1326H24.8826V27.8826H24.6326V28.1326ZM25.6326 28.1326V27.8826H25.3826V28.1326H25.6326ZM33.3205 33.4915L33.3731 33.7358L33.3205 33.4915ZM45.9447 33.4915L45.8921 33.7358H45.8921L45.9447 33.4915ZM46.3037 33.8397L46.5452 33.7752V33.7752L46.3037 33.8397ZM47.9818 40.1326V40.3826H48.3072L48.2234 40.0682L47.9818 40.1326ZM31.2834 40.1326L31.0418 40.0682L30.958 40.3826H31.2834V40.1326ZM32.9615 33.8397L32.72 33.7752V33.7752L32.9615 33.8397ZM49.0167 40.1326L48.7752 40.197L48.8247 40.3826H49.0167V40.1326ZM47.2699 33.582L47.0283 33.6464L47.2699 33.582ZM51.1326 42.5146H50.8826V42.5736L50.909 42.6264L51.1326 42.5146ZM51.3946 43.0385L51.171 43.1503L51.3946 43.0385ZM51.476 44.1837L51.2388 44.1046V44.1046L51.476 44.1837ZM51.1326 45.2138L50.8954 45.1347L50.8826 45.1732V45.2138H51.1326ZM49.6326 47.6326V47.3826H49.3826V47.6326H49.6326ZM44.6326 47.6326H44.8826V47.3826H44.6326V47.6326ZM34.6326 47.6326V47.3826H34.3826V47.6326H34.6326ZM30.1326 47.6326H30.3826V47.3826H30.1326V47.6326ZM28.6326 45.2138H28.8826V45.1732L28.8698 45.1347L28.6326 45.2138ZM28.2892 44.1837L28.0521 44.2627L28.2892 44.1837ZM28.3706 43.0385L28.147 42.9267L28.3706 43.0385ZM28.6326 42.5146L28.8562 42.6264L28.8826 42.5736V42.5146H28.6326ZM30.2485 40.1326V40.3826H30.4405L30.49 40.197L30.2485 40.1326ZM31.9953 33.582L32.2369 33.6464L31.9953 33.582ZM33.1099 32.5139L33.1625 32.7583L33.1099 32.5139ZM46.1553 32.5139L46.1027 32.7583L46.1553 32.5139ZM44.0472 46.6326L43.8115 46.5493L43.6937 46.8826H44.0472V46.6326ZM43.9188 42.6379L44.1332 42.5092L43.9188 42.6379ZM43.0157 41.1326V40.8826H42.5741L42.8013 41.2612L43.0157 41.1326ZM50.1326 42.1326V42.3826H50.3826V42.1326H50.1326ZM50.1326 45.6326H50.3826V45.3826H50.1326V45.6326ZM41.8495 41.1326L42.0639 41.004L41.991 40.8826H41.8495V41.1326ZM37.4157 41.1326V40.8826H37.2741L37.2013 41.004L37.4157 41.1326ZM43.0613 43.1524L43.2757 43.0237L43.2757 43.0237L43.0613 43.1524ZM36.2038 43.1524L35.9895 43.0237L35.9895 43.0237L36.2038 43.1524ZM35.2179 46.6326V46.8826H35.5715L35.4537 46.5493L35.2179 46.6326ZM29.6326 45.6326V45.3826H29.3826V45.6326H29.6326ZM29.6326 42.1326H29.3826V42.3826H29.6326V42.1326ZM36.2495 41.1326L36.4639 41.2612L36.691 40.8826H36.2495V41.1326ZM35.3464 42.6379L35.132 42.5092L35.3464 42.6379ZM50.2722 44.6326V44.8826H50.4524L50.5094 44.7117L50.2722 44.6326ZM50.5273 43.8675L50.2901 43.7884V43.7884L50.5273 43.8675ZM50.3236 43.1326L50.5472 43.0208L50.4781 42.8826H50.3236V43.1326ZM50.5001 43.4857L50.2765 43.5975V43.5975L50.5001 43.4857ZM29.493 44.6326L29.2558 44.7117L29.3128 44.8826H29.493V44.6326ZM29.2379 43.8675L29.4751 43.7884L29.4751 43.7884L29.2379 43.8675ZM29.4416 43.1326V42.8826H29.2871L29.218 43.0208L29.4416 43.1326ZM48.6326 47.6326H48.8826V47.3826H48.6326V47.6326ZM45.6326 47.6326V47.3826H45.3826V47.6326H45.6326ZM33.6326 47.6326H33.8826V47.3826H33.6326V47.6326ZM31.1326 47.6326V47.3826H30.8826V47.6326H31.1326ZM18.6324 39.6326H18.8824V39.3826H18.6324V39.6326ZM17.6324 39.6326V39.3826H17.3824V39.6326H17.6324ZM25.5456 42.6658L25.402 42.8705L25.402 42.8705L25.5456 42.6658ZM25.5126 45.0098L25.7084 45.1652L25.7084 45.1652L25.5126 45.0098ZM18.0279 45.503L18.2033 45.6811H18.2033L18.0279 45.503ZM17.1375 47.0619L16.89 47.0266L17.1375 47.0619ZM17.3954 48.3285L17.618 48.2148H17.618L17.3954 48.3285ZM17.9892 49.1845L17.8014 49.3495H17.8014L17.9892 49.1845ZM26.6324 51.1326H26.3824V51.3826H26.6324V51.1326ZM27.6324 51.1326V51.3826H27.8824V51.1326H27.6324ZM18.7405 48.5246L18.5527 48.6896L18.5527 48.6896L18.7405 48.5246ZM18.286 47.8738L18.0633 47.9874L18.286 47.8738ZM18.1275 47.2033L17.88 47.168H17.88L18.1275 47.2033ZM18.7297 46.2154L18.5542 46.0373L18.5542 46.0373L18.7297 46.2154ZM26.2959 45.6313L26.1001 45.4759L26.2959 45.6313ZM26.1199 41.8472L25.9763 42.0518L25.9763 42.0518L26.1199 41.8472ZM20.3836 16.0652C20.1611 15.7522 19.7328 15.6552 19.3948 15.8524L19.6467 16.2843C19.7592 16.2187 19.9022 16.2509 19.9761 16.3549L20.3836 16.0652ZM15.1778 19.4288L20.3062 16.4258L20.0536 15.9943L14.9252 18.9973L15.1778 19.4288ZM15.1223 18.3447C14.78 18.5444 14.6546 18.9733 14.8272 19.3236L15.2757 19.1026C15.2184 18.9861 15.2603 18.8431 15.3743 18.7766L15.1223 18.3447ZM19.3948 15.8524L15.1223 18.3447L15.3743 18.7766L19.6467 16.2843L19.3948 15.8524ZM20.5592 16.8571L15.428 19.8618L15.6806 20.2932L20.8118 17.2885L20.5592 16.8571ZM23.1887 20.8677L20.9015 16.9468L20.4696 17.1988L22.7568 21.1197L23.1887 20.8677ZM23.2523 21.4828C23.3206 21.2782 23.2974 21.0541 23.1887 20.8677L22.7568 21.1197C22.793 21.1818 22.8007 21.2565 22.778 21.3247L23.2523 21.4828ZM22.5368 23.6294L23.2523 21.4828L22.778 21.3247L22.0625 23.4713L22.5368 23.6294ZM22.6374 24.6449C22.4609 24.3361 22.4244 23.9668 22.5368 23.6294L22.0625 23.4713C21.905 23.9436 21.9562 24.4606 22.2032 24.8929L22.6374 24.6449ZM23.9881 27.0086L22.6374 24.6449L22.2032 24.8929L23.5539 27.2567L23.9881 27.0086ZM22.9157 27.3826H23.771V26.8826H22.9157V27.3826ZM21.5919 25.4121L22.7013 27.2612L23.1301 27.004L22.0206 25.1549L21.5919 25.4121ZM20.6968 24.8178C21.0694 24.871 21.3982 25.0894 21.5919 25.4121L22.0206 25.1549C21.7495 24.703 21.2892 24.3974 20.7675 24.3228L20.6968 24.8178ZM18.1467 24.4535L20.6968 24.8178L20.7675 24.3228L18.2174 23.9585L18.1467 24.4535ZM17.6049 24.089C17.7203 24.2868 17.9199 24.4211 18.1467 24.4535L18.2174 23.9585C18.1418 23.9477 18.0753 23.903 18.0368 23.837L17.6049 24.089ZM15.3383 20.2035L17.6049 24.089L18.0368 23.837L15.7702 19.9515L15.3383 20.2035ZM25.1398 27.0086L23.5056 24.1487L23.0715 24.3968L24.7057 27.2567L25.1398 27.0086ZM25.1326 26.8826H24.9228V27.3826H25.1326V26.8826ZM26.6326 26.8826H25.1326V27.3826H26.6326V26.8826ZM27.1326 26.8826H26.6326V27.3826H27.1326V26.8826ZM28.1326 26.8826H27.1326V27.3826H28.1326V26.8826ZM29.2152 27.5074C28.9995 27.1345 28.5956 26.8826 28.1326 26.8826V27.3826C28.4099 27.3826 28.6524 27.533 28.7824 27.7578L29.2152 27.5074ZM29.6326 27.3826H28.9988V27.8826H29.6326V27.3826ZM30.3826 28.1326C30.3826 27.7184 30.0468 27.3826 29.6326 27.3826V27.8826C29.7707 27.8826 29.8826 27.9945 29.8826 28.1326H30.3826ZM29.6326 28.8826C30.0468 28.8826 30.3826 28.5468 30.3826 28.1326H29.8826C29.8826 28.2707 29.7707 28.3826 29.6326 28.3826V28.8826ZM29.1326 28.8826H29.6326V28.3826H29.1326V28.8826ZM29.3826 29.6326V28.6326H28.8826V29.6326H29.3826ZM29.6326 29.3826H29.1326V29.8826H29.6326V29.3826ZM30.3826 30.1326C30.3826 29.7184 30.0468 29.3826 29.6326 29.3826V29.8826C29.7707 29.8826 29.8826 29.9945 29.8826 30.1326H30.3826ZM29.6326 30.8826C30.0468 30.8826 30.3826 30.5468 30.3826 30.1326H29.8826C29.8826 30.2707 29.7707 30.3826 29.6326 30.3826V30.8826ZM29.0472 30.8826H29.6326V30.3826H29.0472V30.8826ZM27.6326 31.8826C28.3949 31.8826 29.0428 31.3953 29.283 30.7159L28.8115 30.5493C28.6398 31.0351 28.1765 31.3826 27.6326 31.3826V31.8826ZM27.1326 31.8826H27.6326V31.3826H27.1326V31.8826ZM22.9416 31.8826H27.1326V31.3826H22.9416V31.8826ZM23.7308 32.6521L23.1652 31.5208L22.718 31.7444L23.2836 32.8757L23.7308 32.6521ZM23.7777 32.717C23.7587 32.698 23.7429 32.6761 23.7308 32.6521L23.2836 32.8757C23.3197 32.9478 23.3671 33.0136 23.4241 33.0706L23.7777 32.717ZM24.6629 33.6023L23.7777 32.717L23.4241 33.0706L24.3094 33.9558L24.6629 33.6023ZM24.6629 34.6629C24.9558 34.3701 24.9558 33.8952 24.6629 33.6023L24.3094 33.9558C24.407 34.0535 24.407 34.2118 24.3094 34.3094L24.6629 34.6629ZM23.6023 34.6629C23.8952 34.9558 24.37 34.9558 24.6629 34.6629L24.3094 34.3094C24.2117 34.407 24.0535 34.407 23.9558 34.3094L23.6023 34.6629ZM22.717 33.7777L23.6023 34.6629L23.9558 34.3094L23.0706 33.4241L22.717 33.7777ZM22.3892 33.3229C22.4733 33.4911 22.584 33.6447 22.717 33.7777L23.0706 33.4241C22.9756 33.3291 22.8965 33.2194 22.8364 33.0993L22.3892 33.3229ZM21.6 31.7444L22.3892 33.3229L22.8364 33.0993L22.0472 31.5208L21.6 31.7444ZM20.9999 31.8826H21.8236V31.3826H20.9999V31.8826ZM20.7524 32.0973C20.77 31.9741 20.8755 31.8826 20.9999 31.8826V31.3826C20.6267 31.3826 20.3102 31.6571 20.2574 32.0266L20.7524 32.0973ZM20.4566 34.168L20.7524 32.0973L20.2574 32.0266L19.9616 34.0973L20.4566 34.168ZM20.4558 34.1737L20.4566 34.168L19.9616 34.0973L19.9608 34.103L20.4558 34.1737ZM20.2649 33.8943L20.2496 33.8918L20.1669 34.3849L20.1822 34.3874L20.2649 33.8943ZM20.6345 34.088L20.3477 33.9239L20.0993 34.3578L20.3861 34.522L20.6345 34.088ZM20.2915 34.4396C20.3023 34.4485 20.3124 34.4583 20.3215 34.4689L20.6991 34.1411C20.6718 34.1097 20.6419 34.0805 20.6098 34.054L20.2915 34.4396ZM20.1783 34.3867C20.2206 34.3945 20.2592 34.413 20.2915 34.4396L20.6098 34.054C20.5136 33.9746 20.3969 33.9185 20.2687 33.895L20.1783 34.3867ZM20.0849 34.3496L20.0993 34.3578L20.3477 33.9239L20.3333 33.9156L20.0849 34.3496ZM21.6326 33.8826H20.2091V34.3826H21.6326V33.8826ZM22.3826 34.6326C22.3826 34.2184 22.0468 33.8826 21.6326 33.8826V34.3826C21.7707 34.3826 21.8826 34.4945 21.8826 34.6326H22.3826ZM21.6326 35.3826C22.0468 35.3826 22.3826 35.0468 22.3826 34.6326H21.8826C21.8826 34.7707 21.7707 34.8826 21.6326 34.8826V35.3826ZM20.5662 35.3826H21.6326V34.8826H20.5662V35.3826ZM20.4977 37.3801L20.8137 35.168L20.3188 35.0973L20.0027 37.3094L20.4977 37.3801ZM18.7653 38.8826C19.6362 38.8826 20.3746 38.2422 20.4977 37.3801L20.0027 37.3094C19.9148 37.9252 19.3874 38.3826 18.7653 38.3826V38.8826ZM17.8696 38.8826H18.7653V38.3826H17.8696V38.8826ZM16.1584 36.7659C15.925 37.8553 16.7555 38.8826 17.8696 38.8826V38.3826C17.0738 38.3826 16.4806 37.6488 16.6473 36.8707L16.1584 36.7659ZM17.1401 32.185L16.1584 36.7659L16.6473 36.8707L17.629 32.2898L17.1401 32.185ZM16.8956 31.8826C17.0548 31.8826 17.1734 32.0294 17.1401 32.185L17.629 32.2898C17.729 31.8229 17.3731 31.3826 16.8956 31.3826V31.8826ZM16.0326 31.8826H16.8956V31.3826H16.0326V31.8826ZM14.8826 30.7326C14.8826 31.3677 15.3975 31.8826 16.0326 31.8826V31.3826C15.6736 31.3826 15.3826 31.0916 15.3826 30.7326H14.8826ZM14.8826 29.5326V30.7326H15.3826V29.5326H14.8826ZM16.0326 28.3826C15.3975 28.3826 14.8826 28.8975 14.8826 29.5326H15.3826C15.3826 29.1736 15.6736 28.8826 16.0326 28.8826V28.3826ZM17.2184 28.3826H16.0326V28.8826H17.2184V28.3826ZM17.3952 28.3094C17.3483 28.3563 17.2847 28.3826 17.2184 28.3826V28.8826C17.4173 28.8826 17.6081 28.8036 17.7487 28.6629L17.3952 28.3094ZM18.3094 27.3952L17.3952 28.3094L17.7487 28.6629L18.6629 27.7487L18.3094 27.3952ZM19.5468 26.8826C19.0827 26.8826 18.6376 27.067 18.3094 27.3952L18.6629 27.7487C18.8973 27.5143 19.2153 27.3826 19.5468 27.3826V26.8826ZM21.7495 26.8826H19.5468V27.3826H21.7495V26.8826ZM20.7344 25.9266L21.5351 27.2612L21.9639 27.004L21.1631 25.6694L20.7344 25.9266ZM20.5553 25.8078C20.6299 25.8184 20.6956 25.8621 20.7344 25.9266L21.1631 25.6694C21.0469 25.4757 20.8496 25.3447 20.6261 25.3128L20.5553 25.8078ZM18.0052 25.4435L20.5553 25.8078L20.6261 25.3128L18.0759 24.9485L18.0052 25.4435ZM16.7411 24.5928C17.0105 25.0546 17.4761 25.3679 18.0052 25.4435L18.0759 24.9485C17.698 24.8945 17.3654 24.6707 17.173 24.3409L16.7411 24.5928ZM14.2231 20.2762L16.7411 24.5928L17.173 24.3409L14.6549 20.0242L14.2231 20.2762ZM13.9886 19.8743L14.2231 20.2762L14.6549 20.0242L14.4205 19.6224L13.9886 19.8743ZM14.6185 17.4809C13.7836 17.9679 13.5016 19.0395 13.9886 19.8743L14.4205 19.6224C14.0727 19.026 14.2741 18.2607 14.8704 17.9128L14.6185 17.4809ZM18.8909 14.9887L14.6185 17.4809L14.8704 17.9128L19.1429 15.4205L18.8909 14.9887ZM21.2843 15.6185C20.7973 14.7837 19.7258 14.5017 18.8909 14.9887L19.1429 15.4205C19.7392 15.0727 20.5046 15.2741 20.8524 15.8704L21.2843 15.6185ZM21.5129 16.0103L21.2843 15.6185L20.8524 15.8704L21.081 16.2623L21.5129 16.0103ZM24.0524 20.3639L21.5129 16.0103L21.081 16.2623L23.6206 20.6158L24.0524 20.3639ZM24.201 21.799C24.3602 21.3215 24.3061 20.7986 24.0524 20.3639L23.6206 20.6158C23.8017 20.9264 23.8404 21.2999 23.7267 21.6409L24.201 21.799ZM23.4855 23.9456L24.201 21.799L23.7267 21.6409L23.0112 23.7875L23.4855 23.9456ZM23.5056 24.1487C23.4703 24.087 23.463 24.0131 23.4855 23.9456L23.0112 23.7875C22.9437 23.9899 22.9656 24.2115 23.0715 24.3968L23.5056 24.1487ZM28.1326 27.8826H27.6326V28.3826H28.1326V27.8826ZM28.3826 30.1326V28.1326H27.8826V30.1326H28.3826ZM27.6326 30.8826C28.0468 30.8826 28.3826 30.5468 28.3826 30.1326H27.8826C27.8826 30.2707 27.7707 30.3826 27.6326 30.3826V30.8826ZM27.3826 28.1326V30.6326H27.8826V28.1326H27.3826ZM26.8826 30.6326V28.1326H26.3826V30.6326H26.8826ZM22.4002 30.8826H26.6326V30.3826H22.4002V30.8826ZM21.3406 29.4939L22.1922 30.7713L22.6082 30.4939L21.7566 29.2166L21.3406 29.4939ZM20.9939 29.4246C21.1088 29.348 21.264 29.3791 21.3406 29.4939L21.7566 29.2166C21.5269 28.8719 21.0612 28.7788 20.7166 29.0086L20.9939 29.4246ZM20.9246 29.7713C20.848 29.6564 20.879 29.5012 20.9939 29.4246L20.7166 29.0086C20.3719 29.2383 20.2788 29.704 20.5086 30.0486L20.9246 29.7713ZM21.4064 30.4939L20.9246 29.7713L20.5086 30.0486L20.9903 30.7713L21.4064 30.4939ZM20.9999 30.8826H21.1983V30.3826H20.9999V30.8826ZM19.7625 31.9558C19.8504 31.34 20.3778 30.8826 20.9999 30.8826V30.3826C20.129 30.3826 19.3906 31.023 19.2675 31.8851L19.7625 31.9558ZM19.4558 34.1023L19.7625 31.9558L19.2675 31.8851L18.9608 34.0316L19.4558 34.1023ZM19.7295 34.7514C19.533 34.6073 19.4185 34.3634 19.4558 34.1023L18.9608 34.0316C18.8961 34.4847 19.0963 34.9073 19.434 35.1547L19.7295 34.7514ZM19.5078 37.2387L19.8292 34.9884L19.3343 34.9177L19.0128 37.168L19.5078 37.2387ZM18.7653 37.8826C19.1385 37.8826 19.455 37.6082 19.5078 37.2387L19.0128 37.168C18.9952 37.2911 18.8897 37.3826 18.7653 37.3826V37.8826ZM17.8696 37.8826H18.7653V37.3826H17.8696V37.8826ZM17.1362 36.9755C17.0362 37.4424 17.3921 37.8826 17.8696 37.8826V37.3826C17.7104 37.3826 17.5918 37.2359 17.6251 37.0802L17.1362 36.9755ZM18.1179 32.3945L17.1362 36.9755L17.6251 37.0802L18.6068 32.4993L18.1179 32.3945ZM16.8956 30.8826C17.6914 30.8826 18.2846 31.6164 18.1179 32.3945L18.6068 32.4993C18.8402 31.4099 18.0097 30.3826 16.8956 30.3826V30.8826ZM16.1326 30.8826H16.8956V30.3826H16.1326V30.8826ZM15.8826 29.6326V30.6326H16.3826V29.6326H15.8826ZM17.2184 29.3826H16.1326V29.8826H17.2184V29.3826ZM18.1023 29.0165C17.8678 29.2509 17.5499 29.3826 17.2184 29.3826V29.8826C17.6825 29.8826 18.1276 29.6982 18.4558 29.3701L18.1023 29.0165ZM19.0165 28.1023L18.1023 29.0165L18.4558 29.3701L19.37 28.4558L19.0165 28.1023ZM19.5468 27.8826C19.3479 27.8826 19.1571 27.9616 19.0165 28.1023L19.37 28.4558C19.4169 28.409 19.4805 28.3826 19.5468 28.3826V27.8826ZM22.6326 27.8826H19.5468V28.3826H22.6326V27.8826ZM24.6326 27.8826H22.6326V28.3826H24.6326V27.8826ZM24.8826 29.6326V28.1326H24.3826V29.6326H24.8826ZM25.1326 29.8826C24.9945 29.8826 24.8826 29.7707 24.8826 29.6326H24.3826C24.3826 30.0468 24.7184 30.3826 25.1326 30.3826V29.8826ZM25.3826 29.6326C25.3826 29.7707 25.2707 29.8826 25.1326 29.8826V30.3826C25.5468 30.3826 25.8826 30.0468 25.8826 29.6326H25.3826ZM25.3826 28.1326V29.6326H25.8826V28.1326H25.3826ZM26.6326 27.8826H25.6326V28.3826H26.6326V27.8826ZM39.6326 32.3826C37.5249 32.3826 34.5262 32.9759 33.2678 33.2471L33.3731 33.7358C34.6358 33.4638 37.5854 32.8826 39.6326 32.8826V32.3826ZM45.9974 33.2471C44.739 32.9759 41.7403 32.3826 39.6326 32.3826V32.8826C41.6798 32.8826 44.6294 33.4638 45.8921 33.7358L45.9974 33.2471ZM46.5452 33.7752C46.4737 33.5072 46.2631 33.3043 45.9974 33.2471L45.8921 33.7358C45.9701 33.7527 46.0379 33.8132 46.0621 33.9041L46.5452 33.7752ZM48.2234 40.0682L46.5452 33.7752L46.0621 33.9041L47.7402 40.197L48.2234 40.0682ZM31.2834 40.3826H47.9818V39.8826H31.2834V40.3826ZM32.72 33.7752L31.0418 40.0682L31.525 40.197L33.2031 33.9041L32.72 33.7752ZM33.2678 33.2471C33.0021 33.3043 32.7915 33.5072 32.72 33.7752L33.2031 33.9041C33.2273 33.8132 33.2951 33.7527 33.3731 33.7358L33.2678 33.2471ZM49.2583 40.0682L47.5115 33.5176L47.0283 33.6464L48.7752 40.197L49.2583 40.0682ZM49.6326 39.8826H49.0167V40.3826H49.6326V39.8826ZM51.3826 41.6326C51.3826 40.6661 50.5991 39.8826 49.6326 39.8826V40.3826C50.323 40.3826 50.8826 40.9423 50.8826 41.6326H51.3826ZM51.3826 42.5146V41.6326H50.8826V42.5146H51.3826ZM51.6182 42.9267L51.3562 42.4028L50.909 42.6264L51.171 43.1503L51.6182 42.9267ZM51.7131 44.2627C51.8599 43.8224 51.8257 43.3419 51.6182 42.9267L51.171 43.1503C51.3192 43.4469 51.3436 43.7901 51.2388 44.1046L51.7131 44.2627ZM51.3698 45.2928L51.7131 44.2627L51.2388 44.1046L50.8954 45.1347L51.3698 45.2928ZM51.3826 46.1326V45.2138H50.8826V46.1326H51.3826ZM49.6326 47.8826C50.5991 47.8826 51.3826 47.0991 51.3826 46.1326H50.8826C50.8826 46.823 50.323 47.3826 49.6326 47.3826V47.8826ZM49.8826 49.6326V47.6326H49.3826V49.6326H49.8826ZM48.1326 51.3826C49.0991 51.3826 49.8826 50.5991 49.8826 49.6326H49.3826C49.3826 50.323 48.823 50.8826 48.1326 50.8826V51.3826ZM46.1326 51.3826H48.1326V50.8826H46.1326V51.3826ZM44.3826 49.6326C44.3826 50.5991 45.1661 51.3826 46.1326 51.3826V50.8826C45.4422 50.8826 44.8826 50.323 44.8826 49.6326H44.3826ZM44.3826 47.6326V49.6326H44.8826V47.6326H44.3826ZM42.6326 47.8826H44.6326V47.3826H42.6326V47.8826ZM36.6326 47.8826H42.6326V47.3826H36.6326V47.8826ZM34.6326 47.8826H36.6326V47.3826H34.6326V47.8826ZM34.8826 49.6326V47.6326H34.3826V49.6326H34.8826ZM33.1326 51.3826C34.0991 51.3826 34.8826 50.5991 34.8826 49.6326H34.3826C34.3826 50.323 33.823 50.8826 33.1326 50.8826V51.3826ZM31.6326 51.3826H33.1326V50.8826H31.6326V51.3826ZM29.8826 49.6326C29.8826 50.5991 30.6661 51.3826 31.6326 51.3826V50.8826C30.9422 50.8826 30.3826 50.323 30.3826 49.6326H29.8826ZM29.8826 47.6326V49.6326H30.3826V47.6326H29.8826ZM28.3826 46.1326C28.3826 47.0991 29.1661 47.8826 30.1326 47.8826V47.3826C29.4422 47.3826 28.8826 46.823 28.8826 46.1326H28.3826ZM28.3826 45.2138V46.1326H28.8826V45.2138H28.3826ZM28.0521 44.2627L28.3954 45.2928L28.8698 45.1347L28.5264 44.1046L28.0521 44.2627ZM28.147 42.9267C27.9395 43.3419 27.9053 43.8224 28.0521 44.2627L28.5264 44.1046C28.4216 43.7901 28.446 43.4469 28.5942 43.1503L28.147 42.9267ZM28.409 42.4028L28.147 42.9267L28.5942 43.1503L28.8562 42.6264L28.409 42.4028ZM28.3826 41.6326V42.5146H28.8826V41.6326H28.3826ZM30.1326 39.8826C29.1661 39.8826 28.3826 40.6661 28.3826 41.6326H28.8826C28.8826 40.9423 29.4422 40.3826 30.1326 40.3826V39.8826ZM30.2485 39.8826H30.1326V40.3826H30.2485V39.8826ZM31.7537 33.5176L30.0069 40.0682L30.49 40.197L32.2369 33.6464L31.7537 33.5176ZM33.0572 32.2695C32.4144 32.408 31.9193 32.8968 31.7537 33.5176L32.2369 33.6464C32.3554 33.202 32.7082 32.8562 33.1625 32.7583L33.0572 32.2695ZM39.6326 31.3826C37.4041 31.3826 34.3073 32.0002 33.0572 32.2695L33.1625 32.7583C34.4167 32.4881 37.4645 31.8826 39.6326 31.8826V31.3826ZM46.208 32.2695C44.9579 32.0002 41.8611 31.3826 39.6326 31.3826V31.8826C41.8007 31.8826 44.8485 32.4881 46.1027 32.7583L46.208 32.2695ZM47.5115 33.5176C47.3459 32.8968 46.8508 32.408 46.208 32.2695L46.1027 32.7583C46.557 32.8562 46.9098 33.202 47.0283 33.6464L47.5115 33.5176ZM44.0472 46.8826H45.1326V46.3826H44.0472V46.8826ZM43.8826 46.1326C43.8826 46.2792 43.8575 46.4193 43.8115 46.5493L44.283 46.7159C44.3476 46.5332 44.3826 46.3367 44.3826 46.1326H43.8826ZM43.8826 43.4096V46.1326H44.3826V43.4096H43.8826ZM43.7045 42.7665C43.821 42.9607 43.8826 43.183 43.8826 43.4096H44.3826C44.3826 43.0924 44.2964 42.7812 44.1332 42.5092L43.7045 42.7665ZM42.8013 41.2612L43.7045 42.7665L44.1332 42.5092L43.2301 41.004L42.8013 41.2612ZM48.6326 40.8826H43.0157V41.3826H48.6326V40.8826ZM49.6326 40.8826H48.6326V41.3826H49.6326V40.8826ZM50.3826 41.6326C50.3826 41.2184 50.0468 40.8826 49.6326 40.8826V41.3826C49.7707 41.3826 49.8826 41.4945 49.8826 41.6326H50.3826ZM50.3826 42.1326V41.6326H49.8826V42.1326H50.3826ZM46.1326 42.3826H50.1326V41.8826H46.1326V42.3826ZM44.8826 43.6326C44.8826 42.9423 45.4422 42.3826 46.1326 42.3826V41.8826C45.1661 41.8826 44.3826 42.6661 44.3826 43.6326H44.8826ZM44.8826 44.1326V43.6326H44.3826V44.1326H44.8826ZM46.1326 45.3826C45.4422 45.3826 44.8826 44.823 44.8826 44.1326H44.3826C44.3826 45.0991 45.1661 45.8826 46.1326 45.8826V45.3826ZM50.1326 45.3826H46.1326V45.8826H50.1326V45.3826ZM50.3826 46.1326V45.6326H49.8826V46.1326H50.3826ZM49.6326 46.8826C50.0468 46.8826 50.3826 46.5468 50.3826 46.1326H49.8826C49.8826 46.2707 49.7707 46.3826 49.6326 46.3826V46.8826ZM49.1326 46.8826H49.6326V46.3826H49.1326V46.8826ZM45.1326 46.8826H49.1326V46.3826H45.1326V46.8826ZM41.8495 40.8826H37.4157V41.3826H41.8495V40.8826ZM43.2757 43.0237L42.0639 41.004L41.6351 41.2612L42.847 43.281L43.2757 43.0237ZM43.3826 43.4096C43.3826 43.2737 43.3457 43.1403 43.2757 43.0237L42.847 43.281C42.8703 43.3198 42.8826 43.3643 42.8826 43.4096H43.3826ZM43.3826 46.1326V43.4096H42.8826V46.1326H43.3826ZM42.6326 46.8826C43.0468 46.8826 43.3826 46.5468 43.3826 46.1326H42.8826C42.8826 46.2707 42.7707 46.3826 42.6326 46.3826V46.8826ZM36.6326 46.8826H42.6326V46.3826H36.6326V46.8826ZM35.8826 46.1326C35.8826 46.5468 36.2184 46.8826 36.6326 46.8826V46.3826C36.4945 46.3826 36.3826 46.2707 36.3826 46.1326H35.8826ZM35.8826 43.4096V46.1326H36.3826V43.4096H35.8826ZM35.9895 43.0237C35.9195 43.1403 35.8826 43.2737 35.8826 43.4096H36.3826C36.3826 43.3643 36.3949 43.3198 36.4182 43.281L35.9895 43.0237ZM37.2013 41.004L35.9895 43.0237L36.4182 43.281L37.6301 41.2612L37.2013 41.004ZM35.4537 46.5493C35.4077 46.4193 35.3826 46.2792 35.3826 46.1326H34.8826C34.8826 46.3367 34.9176 46.5332 34.9822 46.7159L35.4537 46.5493ZM34.1326 46.8826H35.2179V46.3826H34.1326V46.8826ZM30.6326 46.8826H34.1326V46.3826H30.6326V46.8826ZM30.1326 46.8826H30.6326V46.3826H30.1326V46.8826ZM29.3826 46.1326C29.3826 46.5468 29.7184 46.8826 30.1326 46.8826V46.3826C29.9945 46.3826 29.8826 46.2707 29.8826 46.1326H29.3826ZM29.3826 45.6326V46.1326H29.8826V45.6326H29.3826ZM33.1326 45.3826H29.6326V45.8826H33.1326V45.3826ZM34.3826 44.1326C34.3826 44.823 33.823 45.3826 33.1326 45.3826V45.8826C34.0991 45.8826 34.8826 45.0991 34.8826 44.1326H34.3826ZM34.3826 43.6326V44.1326H34.8826V43.6326H34.3826ZM33.1326 42.3826C33.823 42.3826 34.3826 42.9423 34.3826 43.6326H34.8826C34.8826 42.6661 34.0991 41.8826 33.1326 41.8826V42.3826ZM29.6326 42.3826H33.1326V41.8826H29.6326V42.3826ZM29.3826 41.6326V42.1326H29.8826V41.6326H29.3826ZM30.1326 40.8826C29.7184 40.8826 29.3826 41.2184 29.3826 41.6326H29.8826C29.8826 41.4945 29.9945 41.3826 30.1326 41.3826V40.8826ZM30.6326 40.8826H30.1326V41.3826H30.6326V40.8826ZM36.2495 40.8826H30.6326V41.3826H36.2495V40.8826ZM35.5607 42.7665L36.4639 41.2612L36.0351 41.004L35.132 42.5092L35.5607 42.7665ZM35.3826 43.4096C35.3826 43.183 35.4442 42.9607 35.5607 42.7665L35.132 42.5092C34.9688 42.7812 34.8826 43.0924 34.8826 43.4096H35.3826ZM35.3826 46.1326V43.4096H34.8826V46.1326H35.3826ZM50.5094 44.7117L50.7644 43.9465L50.2901 43.7884L50.035 44.5536L50.5094 44.7117ZM46.1326 44.8826H50.2722V44.3826H46.1326V44.8826ZM45.3826 44.1326C45.3826 44.5468 45.7184 44.8826 46.1326 44.8826V44.3826C45.9945 44.3826 45.8826 44.2707 45.8826 44.1326H45.3826ZM45.3826 43.6326V44.1326H45.8826V43.6326H45.3826ZM46.1326 42.8826C45.7184 42.8826 45.3826 43.2184 45.3826 43.6326H45.8826C45.8826 43.4945 45.9945 43.3826 46.1326 43.3826V42.8826ZM50.3236 42.8826H46.1326V43.3826H50.3236V42.8826ZM50.7237 43.3739L50.5472 43.0208L50.1 43.2444L50.2765 43.5975L50.7237 43.3739ZM50.7644 43.9465C50.8273 43.7578 50.8127 43.5518 50.7237 43.3739L50.2765 43.5975C50.3062 43.6568 50.3111 43.7255 50.2901 43.7884L50.7644 43.9465ZM29.493 44.8826H33.1326V44.3826H29.493V44.8826ZM29.0008 43.9465L29.2558 44.7117L29.7301 44.5536L29.4751 43.7884L29.0008 43.9465ZM29.0414 43.3739C28.9525 43.5518 28.9379 43.7578 29.0008 43.9465L29.4751 43.7884C29.4541 43.7255 29.459 43.6568 29.4887 43.5975L29.0414 43.3739ZM29.218 43.0208L29.0414 43.3739L29.4887 43.5975L29.6652 43.2444L29.218 43.0208ZM33.1326 42.8826H29.4416V43.3826H33.1326V42.8826ZM33.8826 43.6326C33.8826 43.2184 33.5468 42.8826 33.1326 42.8826V43.3826C33.2707 43.3826 33.3826 43.4945 33.3826 43.6326H33.8826ZM33.8826 44.1326V43.6326H33.3826V44.1326H33.8826ZM33.1326 44.8826C33.5468 44.8826 33.8826 44.5468 33.8826 44.1326H33.3826C33.3826 44.2707 33.2707 44.3826 33.1326 44.3826V44.8826ZM48.6326 47.3826H45.6326V47.8826H48.6326V47.3826ZM48.8826 49.6326V47.6326H48.3826V49.6326H48.8826ZM48.1326 50.3826C48.5468 50.3826 48.8826 50.0468 48.8826 49.6326H48.3826C48.3826 49.7707 48.2707 49.8826 48.1326 49.8826V50.3826ZM46.1326 50.3826H48.1326V49.8826H46.1326V50.3826ZM45.3826 49.6326C45.3826 50.0468 45.7184 50.3826 46.1326 50.3826V49.8826C45.9945 49.8826 45.8826 49.7707 45.8826 49.6326H45.3826ZM45.3826 47.6326V49.6326H45.8826V47.6326H45.3826ZM33.6326 47.3826H31.1326V47.8826H33.6326V47.3826ZM33.8826 49.6326V47.6326H33.3826V49.6326H33.8826ZM33.1326 50.3826C33.5468 50.3826 33.8826 50.0468 33.8826 49.6326H33.3826C33.3826 49.7707 33.2707 49.8826 33.1326 49.8826V50.3826ZM31.6326 50.3826H33.1326V49.8826H31.6326V50.3826ZM30.8826 49.6326C30.8826 50.0468 31.2184 50.3826 31.6326 50.3826V49.8826C31.4945 49.8826 31.3826 49.7707 31.3826 49.6326H30.8826ZM30.8826 47.6326V49.6326H31.3826V47.6326H30.8826ZM18.3824 39.6326V41.1326H18.8824V39.6326H18.3824ZM17.6324 39.8826H18.6324V39.3826H17.6324V39.8826ZM17.8824 41.1326V39.6326H17.3824V41.1326H17.8824ZM19.1324 42.3826C18.442 42.3826 17.8824 41.823 17.8824 41.1326H17.3824C17.3824 42.0991 18.1659 42.8826 19.1324 42.8826V42.3826ZM25.3963 42.3826H19.1324V42.8826H25.3963V42.3826ZM25.6892 42.4612C25.6163 42.41 25.5173 42.3826 25.3963 42.3826V42.8826C25.42 42.8826 25.43 42.8853 25.4299 42.8853C25.4299 42.8853 25.4272 42.8845 25.4224 42.8824C25.4178 42.8803 25.4107 42.8766 25.402 42.8705L25.6892 42.4612ZM26.3826 43.6326C26.3826 43.0475 25.9639 42.6539 25.6892 42.4612L25.402 42.8705C25.6387 43.0365 25.8826 43.2997 25.8826 43.6326H26.3826ZM25.7084 45.1652C25.861 44.9729 26.0267 44.7318 26.1553 44.4724C26.2826 44.2158 26.3826 43.9231 26.3826 43.6326H25.8826C25.8826 43.8148 25.8177 44.0279 25.7074 44.2503C25.5985 44.4698 25.4542 44.6811 25.3167 44.8544L25.7084 45.1652ZM25.2182 45.3826C25.4215 45.3826 25.5993 45.3027 25.7084 45.1652L25.3167 44.8544C25.3159 44.8554 25.2919 44.8826 25.2182 44.8826V45.3826ZM18.9728 45.3826H25.2182V44.8826H18.9728V45.3826ZM18.2033 45.6811C18.4161 45.4715 18.6997 45.3826 18.9728 45.3826V44.8826C18.5962 44.8826 18.1768 45.0054 17.8525 45.3249L18.2033 45.6811ZM17.385 47.0973C17.4736 46.4771 17.9271 45.9532 18.2033 45.6811L17.8525 45.3249C17.564 45.609 17.0034 46.2328 16.89 47.0266L17.385 47.0973ZM17.618 48.2148C17.4525 47.8906 17.3277 47.4988 17.385 47.0973L16.89 47.0266C16.8121 47.572 16.9841 48.0728 17.1727 48.4422L17.618 48.2148ZM18.177 49.0195C18.0061 48.8249 17.785 48.5417 17.618 48.2148L17.1727 48.4422C17.3656 48.8198 17.6155 49.138 17.8014 49.3495L18.177 49.0195ZM19.0187 49.3826C18.7106 49.3826 18.3962 49.269 18.177 49.0195L17.8014 49.3495C18.1315 49.7253 18.5929 49.8826 19.0187 49.8826V49.3826ZM26.1324 49.3826H19.0187V49.8826H26.1324V49.3826ZM26.8824 50.1326C26.8824 49.7184 26.5466 49.3826 26.1324 49.3826V49.8826C26.2704 49.8826 26.3824 49.9945 26.3824 50.1326H26.8824ZM26.8824 51.1326V50.1326H26.3824V51.1326H26.8824ZM27.6324 50.8826H26.6324V51.3826H27.6324V50.8826ZM27.3824 50.1326V51.1326H27.8824V50.1326H27.3824ZM26.1324 48.8826C26.8227 48.8826 27.3824 49.4423 27.3824 50.1326H27.8824C27.8824 49.1661 27.0989 48.3826 26.1324 48.3826V48.8826ZM19.0187 48.8826H26.1324V48.3826H19.0187V48.8826ZM18.5527 48.6896C18.6607 48.8126 18.828 48.8826 19.0187 48.8826V48.3826C18.9489 48.3826 18.9273 48.3584 18.9283 48.3596L18.5527 48.6896ZM18.0633 47.9874C18.2044 48.2636 18.3965 48.5118 18.5527 48.6896L18.9283 48.3596C18.787 48.1987 18.6238 47.9855 18.5087 47.7601L18.0633 47.9874ZM17.88 47.168C17.8432 47.4255 17.9209 47.7084 18.0633 47.9874L18.5087 47.7601C18.3894 47.5266 18.3587 47.3525 18.375 47.2387L17.88 47.168ZM18.5542 46.0373C18.416 46.1735 18.2659 46.3441 18.142 46.5328C18.0195 46.7193 17.9128 46.938 17.88 47.168L18.375 47.2387C18.3934 47.1093 18.4587 46.9613 18.5599 46.8073C18.6596 46.6555 18.7849 46.5119 18.9051 46.3935L18.5542 46.0373ZM18.9728 45.8826C18.803 45.8826 18.6551 45.9379 18.5542 46.0373L18.9051 46.3935C18.8961 46.4023 18.9094 46.3826 18.9728 46.3826V45.8826ZM25.2182 45.8826H18.9728V46.3826H25.2182V45.8826ZM26.1001 45.4759C25.8806 45.7526 25.5471 45.8826 25.2182 45.8826V46.3826C25.673 46.3826 26.162 46.2024 26.4918 45.7867L26.1001 45.4759ZM26.8826 43.6326C26.8826 44.3824 26.3992 45.099 26.1001 45.4759L26.4918 45.7867C26.7973 45.4016 27.3826 44.5668 27.3826 43.6326H26.8826ZM25.9763 42.0518C26.2869 42.2697 26.8826 42.7936 26.8826 43.6326H27.3826C27.3826 42.5393 26.6092 41.8851 26.2634 41.6425L25.9763 42.0518ZM25.3963 41.8826C25.5869 41.8826 25.7957 41.9252 25.9763 42.0518L26.2634 41.6425C25.9754 41.4405 25.6569 41.3826 25.3963 41.3826V41.8826ZM19.1324 41.8826H25.3963V41.3826H19.1324V41.8826ZM18.3824 41.1326C18.3824 41.5468 18.7181 41.8826 19.1324 41.8826V41.3826C18.9943 41.3826 18.8824 41.2707 18.8824 41.1326H18.3824ZM20.0849 34.3496L20.0993 34.3578L20.3477 33.9239L20.3333 33.9156L20.0849 34.3496Z" fill="#E6B0FF"/>
</svg>
