<svg width="66" height="66" viewBox="0 0 66 66" fill="none" xmlns="http://www.w3.org/2000/svg">
<circle cx="33" cy="33" r="33" fill="#8D8A31"/>
<path d="M25.6364 20.8182L30.8572 22.9935C31.0022 23.2835 31.2052 24.0377 30.8572 24.7338C30.5091 25.4299 29.552 25.6039 29.1169 25.6039L24.3312 23.4286" stroke="#FFF967" stroke-width="1.5" stroke-linecap="round" stroke-linejoin="round"/>
<path d="M20.8506 49.5325H16.5V42.5714C16.5643 42.3144 16.7253 41.9436 17.0058 41.6102M20.8506 49.5325H29.5519M20.8506 49.5325V43.4416M17.0058 41.6102C17.3584 41.1911 17.8999 40.8312 18.6753 40.8312C19.5046 40.8312 20.0663 41.2428 20.4156 41.6982M17.0058 41.6102V33L18.2403 32.5649H19.1104L20.4156 33V38.6558M20.4156 41.6982C20.6527 42.0074 20.792 42.3369 20.8506 42.5714V43.4416M20.4156 41.6982V38.6558M33.0325 25.6039V27.7792C33.0325 28.2143 33.6416 28.2143 34.3377 28.2143C35.8539 28.2143 36.8945 28.6898 37.6069 29.3647M33.0325 25.6039V23.4286L37.3831 17.3377C37.6732 17.0476 38.5143 16.4675 39.5584 16.4675C40.6026 16.4675 45.7944 16.4675 48.2597 16.4675C48.8398 16.4675 50 16.8156 50 18.2078C50 19.2768 50 24.8603 50 29.3647M33.0325 25.6039H35.2078M47.3896 26.039H44.7792M37.6069 29.3647C38.9387 30.6264 39.1234 32.5847 39.1234 33.4351C39.1234 34.4792 40.2836 34.7403 40.8636 34.7403C42.7489 34.7403 46.8675 34.7403 48.2597 34.7403C49.6519 34.7403 50 33.5801 50 33C50 32.6012 50 32.163 50 31.6948M37.6069 29.3647H50M50 29.3647C50 30.189 50 30.9771 50 31.6948M50 31.6948H43.474M20.8506 43.4416H48.2597C48.3608 43.391 48.4795 43.3237 48.6066 43.2416M27.8117 38.6558H47.3896C49.1299 38.6558 50 39.961 50 41.2662C50 42.1284 49.2089 42.8522 48.6066 43.2416M48.6066 43.2416V49.5325H31.2922M20.4156 38.6558H26.0714M18.6753 28.6493C18.4571 28.1887 18.6753 27.3442 18.6753 27.3442L20.8506 22.9935C20.8506 22.9935 21.6213 22.5042 22.1558 22.5584C22.7653 22.6203 23.0849 22.945 23.461 23.4286C23.6943 23.7285 23.8961 24.2987 23.8961 24.2987L21.2857 29.0844C21.2857 29.0844 20.5151 29.5737 19.9805 29.5195C19.3711 29.4576 18.9376 29.203 18.6753 28.6493ZM35.6429 23.4286L39.1234 19.0779H47.3896V23.8636H35.6429V23.4286Z" stroke="#FFF967" stroke-width="1.5" stroke-linecap="round" stroke-linejoin="round"/>
<circle cx="18.6753" cy="30.8247" r="1.42532" stroke="#FFF967" stroke-width="1.5"/>
<circle cx="23.8962" cy="21.2532" r="1.42532" stroke="#FFF967" stroke-width="1.5"/>
<path d="M30.8572 24.7338L33.0325 26.039" stroke="#FFF967" stroke-width="1.5" stroke-linecap="round" stroke-linejoin="round"/>
<circle cx="23.026" cy="41.2662" r="0.435065" fill="#FFF967"/>
<circle cx="27.3766" cy="41.2662" r="0.435065" fill="#FFF967"/>
<circle cx="31.7273" cy="41.2662" r="0.435065" fill="#FFF967"/>
<circle cx="36.0779" cy="41.2662" r="0.435065" fill="#FFF967"/>
<circle cx="40.4286" cy="41.2662" r="0.435065" fill="#FFF967"/>
<circle cx="44.7792" cy="41.2662" r="0.435065" fill="#FFF967"/>
</svg>
