<svg width="20" height="20" viewBox="0 0 20 20" fill="none" xmlns="http://www.w3.org/2000/svg">
<g clip-path="url(#clip0_11_162)">
<path fill-rule="evenodd" clip-rule="evenodd" d="M7.5 20H4.16667V17.5C4.16667 17.0397 4.53977 16.6667 5 16.6667H6.66667C7.12691 16.6667 7.5 17.0397 7.5 17.5V20ZM12.5 8.65167L18.794 5.92131C19.3481 5.64427 20 6.04718 20 6.66667V19.1667C20 19.6269 19.6269 20 19.1667 20H0.833333C0.373096 20 0 19.6269 0 19.1667V0.833333C0 0.373096 0.373096 0 0.833333 0H4.16667C4.6269 0 5 0.373096 5 0.833333V8.65167L11.294 5.92131C11.8481 5.64427 12.5 6.04718 12.5 6.66667V8.65167ZM5 12.5C5.46023 12.5 5.83333 12.8731 5.83333 13.3333C5.83333 13.7936 5.46023 14.1667 5 14.1667C4.53977 14.1667 4.16667 13.7936 4.16667 13.3333C4.16667 12.8731 4.53977 12.5 5 12.5ZM11.6667 12.5C12.1269 12.5 12.5 12.8731 12.5 13.3333C12.5 13.7936 12.1269 14.1667 11.6667 14.1667C11.2064 14.1667 10.8333 13.7936 10.8333 13.3333C10.8333 12.8731 11.2064 12.5 11.6667 12.5ZM8.33333 12.5C8.79358 12.5 9.16667 12.8731 9.16667 13.3333C9.16667 13.7936 8.79358 14.1667 8.33333 14.1667C7.87309 14.1667 7.5 13.7936 7.5 13.3333C7.5 12.8731 7.87309 12.5 8.33333 12.5ZM15 12.5C15.4602 12.5 15.8333 12.8731 15.8333 13.3333C15.8333 13.7936 15.4602 14.1667 15 14.1667C14.5398 14.1667 14.1667 13.7936 14.1667 13.3333C14.1667 12.8731 14.5398 12.5 15 12.5Z" fill="#2D3136"/>
</g>
<defs>
<clipPath id="clip0_11_162">
<rect width="20" height="20" fill="white"/>
</clipPath>
</defs>
</svg>
