<svg width="105" height="59" viewBox="0 0 105 59" fill="none" xmlns="http://www.w3.org/2000/svg">
<g filter="url(#filter0_d_5_301)">
<path d="M6.97633 26.9249C5.80785 27.5578 4.1433 29.6853 2.81323 31.7423C1.9521 33.0741 3.06563 34.622 4.62936 34.3576C11.6587 33.1688 23.1684 31.0187 27.0023 30.4649C32.3006 29.6996 38.2185 30.3406 39.1447 30.4498C39.2306 30.4599 39.2929 30.4711 39.3765 30.493C41.5233 31.057 75.3824 39.9439 88.7718 42.9871C90.5759 43.3971 91.2781 41.7977 89.776 40.7175C86.1198 38.0881 82.3749 35.7574 82.1522 35.4625C81.8377 35.046 36.8579 15.4722 32.664 15.6804C28.4701 15.8886 9.28298 25.6755 6.97633 26.9249Z" fill="#D9D9D9"/>
<path d="M72.7025 1.96594C60.2337 4.40226 47.2379 9.21632 39.7763 12.4138C38.3687 13.017 38.2702 14.7771 39.6451 15.4514C45.1365 18.1447 55.5668 22.3836 56.9887 21.7191C58.5037 21.0112 66.3055 13.1577 74.3423 5.19106C75.7048 3.84045 74.5853 1.59804 72.7025 1.96594Z" fill="#D9D9D9"/>
<path d="M3.23311 32.0138C3.89038 30.9973 4.62681 29.969 5.33839 29.121C6.06243 28.2581 6.71951 27.6327 7.21446 27.3646C8.35764 26.7454 13.7222 23.9907 19.3246 21.365C22.1256 20.0523 24.9791 18.775 27.3905 17.814C28.5965 17.3333 29.686 16.9341 30.5995 16.6494C31.5239 16.3614 32.2315 16.2025 32.6888 16.1798C32.8736 16.1706 33.234 16.2186 33.7927 16.3503C34.3356 16.4783 35.0208 16.674 35.8309 16.9303C37.4503 17.4424 39.5429 18.1879 41.9454 19.0928C46.749 20.9021 52.7683 23.3398 58.6706 25.7987C64.572 28.2573 70.3524 30.7354 74.6766 32.6247C76.8388 33.5694 78.6357 34.3664 79.9011 34.9398C80.5342 35.2266 81.0319 35.4565 81.3751 35.6205C81.5473 35.7028 81.6766 35.7666 81.7633 35.8119C81.7893 35.8254 81.8095 35.8363 81.8247 35.8447C81.8578 35.8776 81.8902 35.9052 81.9136 35.9248C81.9647 35.9675 82.0268 36.0154 82.0958 36.0666C82.2345 36.1695 82.4196 36.2993 82.6407 36.4507C83.0248 36.7139 83.5326 37.0525 84.1232 37.4465C84.2133 37.5065 84.3052 37.5679 84.399 37.6305C85.82 38.5786 87.6638 39.8144 89.4841 41.1234C90.1263 41.5853 90.1383 42.0235 90.0563 42.2093C89.9761 42.3911 89.6525 42.6745 88.8826 42.4995C75.5035 39.4587 41.6546 30.5745 39.5035 30.0094C39.3949 29.9809 39.3095 29.9657 39.2032 29.9532C38.2714 29.8434 32.2982 29.1948 26.9308 29.97C24.6894 30.2938 19.8248 31.1628 14.7694 32.066C11.1646 32.71 7.46282 33.3713 4.54599 33.8646C3.95221 33.965 3.47516 33.7221 3.22088 33.3608C2.97018 33.0045 2.91496 32.5058 3.23311 32.0138ZM39.9732 12.8734C47.4173 9.68343 60.3772 4.88367 72.7983 2.45666C74.1516 2.19225 75.0336 3.80178 73.9903 4.83596C73.0441 5.77393 72.1014 6.70999 71.1722 7.6328C68.1527 10.6312 65.2742 13.4896 62.8718 15.8181C61.3009 17.3407 59.938 18.6324 58.8752 19.5861C58.3436 20.0633 57.8913 20.452 57.5281 20.7414C57.1533 21.0401 56.9069 21.2055 56.777 21.2661L56.777 21.2662C56.7749 21.267 56.7282 21.2843 56.6046 21.2881C56.4852 21.2917 56.3267 21.2821 56.1265 21.2554C55.7264 21.2021 55.2053 21.087 54.5832 20.9166C53.3416 20.5766 51.7496 20.0311 50.0199 19.3768C46.5623 18.0688 42.5963 16.3419 39.8653 15.0025C39.3508 14.7502 39.1478 14.3237 39.1667 13.9298C39.1858 13.5311 39.4361 13.1035 39.9732 12.8734Z" stroke="white"/>
</g>
<defs>
<filter id="filter0_d_5_301" x="0.513428" y="0.92572" width="104.081" height="57.1271" filterUnits="userSpaceOnUse" color-interpolation-filters="sRGB">
<feFlood flood-opacity="0" result="BackgroundImageFix"/>
<feColorMatrix in="SourceAlpha" type="matrix" values="0 0 0 0 0 0 0 0 0 0 0 0 0 0 0 0 0 0 127 0" result="hardAlpha"/>
<feOffset dx="6" dy="7"/>
<feGaussianBlur stdDeviation="4"/>
<feComposite in2="hardAlpha" operator="out"/>
<feColorMatrix type="matrix" values="0 0 0 0 0 0 0 0 0 0 0 0 0 0 0 0 0 0 0.19 0"/>
<feBlend mode="normal" in2="BackgroundImageFix" result="effect1_dropShadow_5_301"/>
<feBlend mode="normal" in="SourceGraphic" in2="effect1_dropShadow_5_301" result="shape"/>
</filter>
</defs>
</svg>
