<svg width="297" height="962" viewBox="0 0 297 962" fill="none" xmlns="http://www.w3.org/2000/svg">
<g filter="url(#filter0_df_219_218)">
<path d="M5 350.089V356.824C5 357.928 5.89543 358.824 7 358.824H15.8182C16.3623 358.824 16.8829 358.602 17.2599 358.21L22.518 352.74C22.8951 352.348 23.4157 352.126 23.9598 352.126H56.136C56.5523 352.126 56.9583 352.256 57.2973 352.498L65.6444 358.452C65.9834 358.694 66.3894 358.824 66.8058 358.824H78.1163C80.054 358.824 80.8594 356.344 79.2916 355.205L71.6231 349.636C71.2282 349.349 70.9945 348.891 70.9945 348.403C70.9945 347.885 71.2572 347.403 71.6921 347.122L78.5727 342.68C80.2481 341.599 79.4821 339 77.488 339H66.7301C66.361 339 65.999 339.102 65.6844 339.295L57.2574 344.464C56.9427 344.657 56.5807 344.76 56.2116 344.76H33.6929C32.5883 344.76 31.6929 343.864 31.6929 342.76V341C31.6929 339.895 30.7974 339 29.6929 339H17.4195C16.9361 339 16.469 339.175 16.1048 339.493L5.68529 348.582C5.24988 348.962 5 349.511 5 350.089Z" stroke="#3D396B"/>
<path d="M98.2239 351.733V356.78C98.2239 357.901 99.146 358.804 100.267 358.779L103.741 358.704C104.165 358.695 104.576 358.551 104.913 358.293L116.465 349.457C116.814 349.19 117.241 349.046 117.68 349.046H129.758C130.862 349.046 131.758 349.941 131.758 351.046V356.69C131.758 357.794 132.653 358.69 133.758 358.69H154.537C154.987 358.69 155.423 358.538 155.776 358.259L166.892 349.476C167.246 349.197 167.682 349.046 168.132 349.046H178.583C179.687 349.046 180.583 349.941 180.583 351.046V356.69C180.583 357.794 181.477 358.69 182.582 358.69H187.596C188.008 358.69 188.409 358.566 188.737 358.317C191.525 356.196 196.165 351.564 198.677 348.952C199.032 348.582 199.228 348.09 199.228 347.578V341C199.228 339.895 198.332 339 197.228 339H164.955C164.48 339 164.02 339.169 163.658 339.478L153.78 347.898C153.418 348.207 152.958 348.376 152.482 348.376H145.427C144.323 348.376 143.427 347.481 143.427 346.376V341C143.427 339.895 142.532 339 141.427 339H113.292C112.829 339 112.381 339.161 112.023 339.454L98.9546 350.187C98.492 350.567 98.2239 351.134 98.2239 351.733Z" stroke="#3D396B"/>
<path d="M214.519 349.99V356.69C214.519 357.794 215.414 358.69 216.519 358.69H274.848C275.383 358.69 275.896 358.475 276.272 358.094L281.179 353.12C282.426 351.856 281.53 349.715 279.755 349.715H232.14C231.11 349.715 230.61 348.456 231.359 347.749C231.571 347.549 231.85 347.438 232.14 347.438H285.722C286.252 347.438 286.76 347.228 287.135 346.854L291.58 342.415C292.841 341.156 291.949 339 290.167 339H227.442C226.979 339 226.53 339.161 226.172 339.456L215.248 348.446C214.786 348.826 214.519 349.392 214.519 349.99Z" stroke="#3D396B"/>
<path d="M5 685.089V691.824C5 692.928 5.89543 693.824 7 693.824H15.8182C16.3623 693.824 16.8829 693.602 17.2599 693.21L22.518 687.74C22.8951 687.348 23.4157 687.126 23.9598 687.126H56.136C56.5523 687.126 56.9583 687.256 57.2973 687.498L65.6444 693.452C65.9834 693.694 66.3894 693.824 66.8058 693.824H78.1163C80.054 693.824 80.8594 691.344 79.2916 690.205L71.6231 684.636C71.2282 684.349 70.9945 683.891 70.9945 683.403C70.9945 682.885 71.2572 682.403 71.6921 682.122L78.5727 677.68C80.2481 676.599 79.4821 674 77.488 674H66.7301C66.361 674 65.999 674.102 65.6844 674.295L57.2574 679.464C56.9427 679.657 56.5807 679.76 56.2116 679.76H33.6929C32.5883 679.76 31.6929 678.864 31.6929 677.76V676C31.6929 674.895 30.7974 674 29.6929 674H17.4195C16.9361 674 16.469 674.175 16.1048 674.493L5.68529 683.582C5.24988 683.962 5 684.511 5 685.089Z" stroke="#3D396B"/>
<path d="M98.2239 686.733V691.78C98.2239 692.901 99.146 693.804 100.267 693.779L103.741 693.704C104.165 693.695 104.576 693.551 104.913 693.293L116.465 684.457C116.814 684.19 117.241 684.046 117.68 684.046H129.758C130.862 684.046 131.758 684.941 131.758 686.046V691.69C131.758 692.794 132.653 693.69 133.758 693.69H154.537C154.987 693.69 155.423 693.538 155.776 693.259L166.892 684.476C167.246 684.197 167.682 684.046 168.132 684.046H178.583C179.687 684.046 180.583 684.941 180.583 686.046V691.69C180.583 692.794 181.477 693.69 182.582 693.69H187.596C188.008 693.69 188.409 693.566 188.737 693.317C191.525 691.196 196.165 686.564 198.677 683.952C199.032 683.582 199.228 683.09 199.228 682.578V676C199.228 674.895 198.332 674 197.228 674H164.955C164.48 674 164.02 674.169 163.658 674.478L153.78 682.898C153.418 683.207 152.958 683.376 152.482 683.376H145.427C144.323 683.376 143.427 682.481 143.427 681.376V676C143.427 674.895 142.532 674 141.427 674H113.292C112.829 674 112.381 674.161 112.023 674.454L98.9546 685.187C98.492 685.567 98.2239 686.134 98.2239 686.733Z" stroke="#3D396B"/>
<path d="M214.519 684.99V691.69C214.519 692.794 215.414 693.69 216.519 693.69H274.848C275.383 693.69 275.896 693.475 276.272 693.094L281.179 688.12C282.426 686.856 281.53 684.715 279.755 684.715H232.14C231.11 684.715 230.61 683.456 231.359 682.749C231.571 682.549 231.85 682.438 232.14 682.438H285.722C286.252 682.438 286.76 682.228 287.135 681.854L291.58 677.415C292.841 676.156 291.949 674 290.167 674H227.442C226.979 674 226.53 674.161 226.172 674.456L215.248 683.446C214.786 683.826 214.519 684.392 214.519 684.99Z" stroke="#3D396B"/>
<path d="M5 522.746V529.481C5 530.585 5.89543 531.481 7 531.481H15.8182C16.3623 531.481 16.8829 531.259 17.2599 530.867L22.518 525.397C22.8951 525.005 23.4157 524.784 23.9598 524.784H56.136C56.5523 524.784 56.9583 524.913 57.2973 525.155L65.6444 531.109C65.9834 531.351 66.3894 531.481 66.8058 531.481H78.1163C80.054 531.481 80.8594 529.001 79.2916 527.862L71.6231 522.293C71.2282 522.007 70.9945 521.548 70.9945 521.06C70.9945 520.542 71.2572 520.06 71.6921 519.779L78.5727 515.337C80.2481 514.256 79.4821 511.657 77.488 511.657H66.7301C66.361 511.657 65.999 511.759 65.6844 511.952L57.2574 517.121C56.9427 517.314 56.5807 517.417 56.2116 517.417H33.6929C32.5883 517.417 31.6929 516.521 31.6929 515.417V513.657C31.6929 512.553 30.7974 511.657 29.6929 511.657H17.4195C16.9361 511.657 16.469 511.832 16.1048 512.15L5.68529 521.239C5.24988 521.619 5 522.168 5 522.746Z" stroke="#3D396B"/>
<path d="M98.2239 524.39V529.437C98.2239 530.558 99.146 531.461 100.267 531.436L103.741 531.361C104.165 531.352 104.576 531.208 104.913 530.95L116.465 522.114C116.814 521.847 117.241 521.703 117.68 521.703H129.758C130.862 521.703 131.758 522.598 131.758 523.703V529.347C131.758 530.451 132.653 531.347 133.758 531.347H154.537C154.987 531.347 155.423 531.195 155.776 530.916L166.892 522.134C167.246 521.855 167.682 521.703 168.132 521.703H178.583C179.687 521.703 180.583 522.598 180.583 523.703V529.347C180.583 530.451 181.477 531.347 182.582 531.347H187.596C188.008 531.347 188.409 531.223 188.737 530.974C191.525 528.854 196.165 524.221 198.677 521.609C199.032 521.239 199.228 520.747 199.228 520.235V513.657C199.228 512.553 198.332 511.657 197.228 511.657H164.955C164.48 511.657 164.02 511.827 163.658 512.135L153.78 520.555C153.418 520.864 152.958 521.033 152.482 521.033H145.427C144.323 521.033 143.427 520.138 143.427 519.033V513.657C143.427 512.553 142.532 511.657 141.427 511.657H113.292C112.829 511.657 112.381 511.818 112.023 512.112L98.9546 522.844C98.492 523.224 98.2239 523.791 98.2239 524.39Z" stroke="#3D396B"/>
<path d="M214.519 522.647V529.347C214.519 530.451 215.414 531.347 216.519 531.347H274.848C275.383 531.347 275.896 531.132 276.272 530.751L281.179 525.777C282.426 524.513 281.53 522.373 279.755 522.373H232.14C231.11 522.373 230.61 521.113 231.359 520.406C231.571 520.207 231.85 520.096 232.14 520.096H285.722C286.252 520.096 286.76 519.885 287.135 519.511L291.58 515.072C292.841 513.813 291.949 511.657 290.167 511.657H227.442C226.979 511.657 226.53 511.818 226.172 512.113L215.248 521.103C214.786 521.483 214.519 522.049 214.519 522.647Z" stroke="#3D396B"/>
<path d="M5 857.746V864.481C5 865.585 5.89543 866.481 7 866.481H15.8182C16.3623 866.481 16.8829 866.259 17.2599 865.867L22.518 860.397C22.8951 860.005 23.4157 859.784 23.9598 859.784H56.136C56.5523 859.784 56.9583 859.913 57.2973 860.155L65.6444 866.109C65.9834 866.351 66.3894 866.481 66.8058 866.481H78.1163C80.054 866.481 80.8594 864.001 79.2916 862.862L71.6231 857.293C71.2282 857.007 70.9945 856.548 70.9945 856.06C70.9945 855.542 71.2572 855.06 71.6921 854.779L78.5727 850.337C80.2481 849.256 79.4821 846.657 77.488 846.657H66.7301C66.361 846.657 65.999 846.759 65.6844 846.952L57.2574 852.121C56.9427 852.314 56.5807 852.417 56.2116 852.417H33.6929C32.5883 852.417 31.6929 851.521 31.6929 850.417V848.657C31.6929 847.553 30.7974 846.657 29.6929 846.657H17.4195C16.9361 846.657 16.469 846.832 16.1048 847.15L5.68529 856.239C5.24988 856.619 5 857.168 5 857.746Z" stroke="#3D396B"/>
<path d="M98.2239 859.39V864.437C98.2239 865.558 99.146 866.461 100.267 866.436L103.741 866.361C104.165 866.352 104.576 866.208 104.913 865.95L116.465 857.114C116.814 856.847 117.241 856.703 117.68 856.703H129.758C130.862 856.703 131.758 857.598 131.758 858.703V864.347C131.758 865.451 132.653 866.347 133.758 866.347H154.537C154.987 866.347 155.423 866.195 155.776 865.916L166.892 857.134C167.246 856.855 167.682 856.703 168.132 856.703H178.583C179.687 856.703 180.583 857.598 180.583 858.703V864.347C180.583 865.451 181.477 866.347 182.582 866.347H187.596C188.008 866.347 188.409 866.223 188.737 865.974C191.525 863.854 196.165 859.221 198.677 856.609C199.032 856.239 199.228 855.747 199.228 855.235V848.657C199.228 847.553 198.332 846.657 197.228 846.657H164.955C164.48 846.657 164.02 846.827 163.658 847.135L153.78 855.555C153.418 855.864 152.958 856.033 152.482 856.033H145.427C144.323 856.033 143.427 855.138 143.427 854.033V848.657C143.427 847.553 142.532 846.657 141.427 846.657H113.292C112.829 846.657 112.381 846.818 112.023 847.112L98.9546 857.844C98.492 858.224 98.2239 858.791 98.2239 859.39Z" stroke="#3D396B"/>
<path d="M214.519 857.647V864.347C214.519 865.451 215.414 866.347 216.519 866.347H274.848C275.383 866.347 275.896 866.132 276.272 865.751L281.179 860.777C282.426 859.513 281.53 857.373 279.755 857.373H232.14C231.11 857.373 230.61 856.113 231.359 855.406C231.571 855.207 231.85 855.096 232.14 855.096H285.722C286.252 855.096 286.76 854.885 287.135 854.511L291.58 850.072C292.841 848.813 291.949 846.657 290.167 846.657H227.442C226.979 846.657 226.53 846.818 226.172 847.113L215.248 856.103C214.786 856.483 214.519 857.049 214.519 857.647Z" stroke="#3D396B"/>
<path d="M5 436.418V443.152C5 444.257 5.89543 445.152 7 445.152H15.8182C16.3623 445.152 16.8829 444.931 17.2599 444.538L22.518 439.069C22.8951 438.677 23.4157 438.455 23.9598 438.455H56.136C56.5523 438.455 56.9583 438.585 57.2973 438.827L65.6444 444.78C65.9834 445.022 66.3894 445.152 66.8058 445.152H78.1163C80.054 445.152 80.8594 442.673 79.2916 441.534L71.6231 435.965C71.2282 435.678 70.9945 435.219 70.9945 434.731C70.9945 434.214 71.2572 433.731 71.6921 433.451L78.5727 429.009C80.2481 427.927 79.4821 425.329 77.488 425.329H66.7301C66.361 425.329 65.999 425.431 65.6844 425.624L57.2574 430.793C56.9427 430.986 56.5807 431.088 56.2116 431.088H33.6929C32.5883 431.088 31.6929 430.193 31.6929 429.088V427.329C31.6929 426.224 30.7974 425.329 29.6929 425.329H17.4195C16.9361 425.329 16.469 425.504 16.1048 425.821L5.68529 434.911C5.24988 435.29 5 435.84 5 436.418Z" stroke="#3D396B"/>
<path d="M98.2239 438.061V443.108C98.2239 444.23 99.146 445.132 100.267 445.108L103.741 445.032C104.165 445.023 104.576 444.879 104.913 444.622L116.465 435.786C116.814 435.519 117.241 435.374 117.68 435.374H129.758C130.862 435.374 131.758 436.27 131.758 437.374V443.018C131.758 444.123 132.653 445.018 133.758 445.018H154.537C154.987 445.018 155.423 444.867 155.776 444.588L166.892 435.805C167.246 435.526 167.682 435.374 168.132 435.374H178.583C179.687 435.374 180.583 436.27 180.583 437.374V443.018C180.583 444.123 181.477 445.018 182.582 445.018H187.596C188.008 445.018 188.409 444.895 188.737 444.645C191.525 442.525 196.165 437.893 198.677 435.28C199.032 434.911 199.228 434.419 199.228 433.906V427.329C199.228 426.224 198.332 425.329 197.228 425.329H164.955C164.48 425.329 164.02 425.498 163.658 425.807L153.78 434.227C153.418 434.535 152.958 434.705 152.482 434.705H145.427C144.323 434.705 143.427 433.809 143.427 432.705V427.329C143.427 426.224 142.532 425.329 141.427 425.329H113.292C112.829 425.329 112.381 425.489 112.023 425.783L98.9546 436.516C98.492 436.895 98.2239 437.463 98.2239 438.061Z" stroke="#3D396B"/>
<path d="M214.519 436.319V443.018C214.519 444.123 215.414 445.018 216.519 445.018H274.848C275.383 445.018 275.896 444.804 276.272 444.423L281.179 439.449C282.426 438.185 281.53 436.044 279.755 436.044H232.14C231.11 436.044 230.61 434.784 231.359 434.077C231.571 433.878 231.85 433.767 232.14 433.767H285.722C286.252 433.767 286.76 433.557 287.135 433.182L291.58 428.744C292.841 427.484 291.949 425.329 290.167 425.329H227.442C226.979 425.329 226.53 425.49 226.172 425.784L215.248 434.774C214.786 435.154 214.519 435.721 214.519 436.319Z" stroke="#3D396B"/>
<path d="M5 771.418V778.152C5 779.257 5.89543 780.152 7 780.152H15.8182C16.3623 780.152 16.8829 779.931 17.2599 779.538L22.518 774.069C22.8951 773.677 23.4157 773.455 23.9598 773.455H56.136C56.5523 773.455 56.9583 773.585 57.2973 773.827L65.6444 779.78C65.9834 780.022 66.3894 780.152 66.8058 780.152H78.1163C80.054 780.152 80.8594 777.673 79.2916 776.534L71.6231 770.965C71.2282 770.678 70.9945 770.219 70.9945 769.731C70.9945 769.214 71.2572 768.731 71.6921 768.451L78.5727 764.009C80.2481 762.927 79.4821 760.329 77.488 760.329H66.7301C66.361 760.329 65.999 760.431 65.6844 760.624L57.2574 765.793C56.9427 765.986 56.5807 766.088 56.2116 766.088H33.6929C32.5883 766.088 31.6929 765.193 31.6929 764.088V762.329C31.6929 761.224 30.7974 760.329 29.6929 760.329H17.4195C16.9361 760.329 16.469 760.504 16.1048 760.821L5.68529 769.911C5.24988 770.29 5 770.84 5 771.418Z" stroke="#3D396B"/>
<path d="M98.2239 773.061V778.108C98.2239 779.23 99.146 780.132 100.267 780.108L103.741 780.032C104.165 780.023 104.576 779.879 104.913 779.622L116.465 770.786C116.814 770.519 117.241 770.374 117.68 770.374H129.758C130.862 770.374 131.758 771.27 131.758 772.374V778.018C131.758 779.123 132.653 780.018 133.758 780.018H154.537C154.987 780.018 155.423 779.867 155.776 779.588L166.892 770.805C167.246 770.526 167.682 770.374 168.132 770.374H178.583C179.687 770.374 180.583 771.27 180.583 772.374V778.018C180.583 779.123 181.477 780.018 182.582 780.018H187.596C188.008 780.018 188.409 779.895 188.737 779.645C191.525 777.525 196.165 772.893 198.677 770.28C199.032 769.911 199.228 769.419 199.228 768.906V762.329C199.228 761.224 198.332 760.329 197.228 760.329H164.955C164.48 760.329 164.02 760.498 163.658 760.807L153.78 769.227C153.418 769.535 152.958 769.705 152.482 769.705H145.427C144.323 769.705 143.427 768.809 143.427 767.705V762.329C143.427 761.224 142.532 760.329 141.427 760.329H113.292C112.829 760.329 112.381 760.489 112.023 760.783L98.9546 771.516C98.492 771.895 98.2239 772.463 98.2239 773.061Z" stroke="#3D396B"/>
<path d="M214.519 771.319V778.018C214.519 779.123 215.414 780.018 216.519 780.018H274.848C275.383 780.018 275.896 779.804 276.272 779.423L281.179 774.449C282.426 773.185 281.53 771.044 279.755 771.044H232.14C231.11 771.044 230.61 769.784 231.359 769.077C231.571 768.878 231.85 768.767 232.14 768.767H285.722C286.252 768.767 286.76 768.557 287.135 768.182L291.58 763.744C292.841 762.484 291.949 760.329 290.167 760.329H227.442C226.979 760.329 226.53 760.49 226.172 760.784L215.248 769.774C214.786 770.154 214.519 770.721 214.519 771.319Z" stroke="#3D396B"/>
<path d="M5 609.075V615.809C5 616.914 5.89543 617.809 7 617.809H15.8182C16.3623 617.809 16.8829 617.588 17.2599 617.195L22.518 611.726C22.8951 611.334 23.4157 611.112 23.9598 611.112H56.136C56.5523 611.112 56.9583 611.242 57.2973 611.484L65.6444 617.437C65.9834 617.679 66.3894 617.809 66.8058 617.809H78.1163C80.054 617.809 80.8594 615.33 79.2916 614.191L71.6231 608.622C71.2282 608.335 70.9945 607.876 70.9945 607.388C70.9945 606.871 71.2572 606.388 71.6921 606.108L78.5727 601.666C80.2481 600.584 79.4821 597.986 77.488 597.986H66.7301C66.361 597.986 65.999 598.088 65.6844 598.281L57.2574 603.45C56.9427 603.643 56.5807 603.745 56.2116 603.745H33.6929C32.5883 603.745 31.6929 602.85 31.6929 601.745V599.986C31.6929 598.881 30.7974 597.986 29.6929 597.986H17.4195C16.9361 597.986 16.469 598.161 16.1048 598.478L5.68529 607.567C5.24988 607.947 5 608.497 5 609.075Z" stroke="#3D396B"/>
<path d="M98.2239 610.718V615.765C98.2239 616.887 99.146 617.789 100.267 617.765L103.741 617.689C104.165 617.68 104.576 617.536 104.913 617.278L116.465 608.443C116.814 608.176 117.241 608.031 117.68 608.031H129.758C130.862 608.031 131.758 608.927 131.758 610.031V615.675C131.758 616.78 132.653 617.675 133.758 617.675H154.537C154.987 617.675 155.423 617.524 155.776 617.245L166.892 608.462C167.246 608.183 167.682 608.031 168.132 608.031H178.583C179.687 608.031 180.583 608.927 180.583 610.031V615.675C180.583 616.78 181.477 617.675 182.582 617.675H187.596C188.008 617.675 188.409 617.552 188.737 617.302C191.525 615.182 196.165 610.55 198.677 607.937C199.032 607.568 199.228 607.076 199.228 606.563V599.986C199.228 598.881 198.332 597.986 197.228 597.986H164.955C164.48 597.986 164.02 598.155 163.658 598.464L153.78 606.884C153.418 607.192 152.958 607.362 152.482 607.362H145.427C144.323 607.362 143.427 606.466 143.427 605.362V599.986C143.427 598.881 142.532 597.986 141.427 597.986H113.292C112.829 597.986 112.381 598.146 112.023 598.44L98.9546 609.173C98.492 609.552 98.2239 610.12 98.2239 610.718Z" stroke="#3D396B"/>
<path d="M214.519 608.976V615.675C214.519 616.78 215.414 617.675 216.519 617.675H274.848C275.383 617.675 275.896 617.461 276.272 617.08L281.179 612.106C282.426 610.842 281.53 608.701 279.755 608.701H232.14C231.11 608.701 230.61 607.441 231.359 606.734C231.571 606.535 231.85 606.424 232.14 606.424H285.722C286.252 606.424 286.76 606.214 287.135 605.839L291.58 601.401C292.841 600.141 291.949 597.986 290.167 597.986H227.442C226.979 597.986 226.53 598.147 226.172 598.441L215.248 607.431C214.786 607.811 214.519 608.378 214.519 608.976Z" stroke="#3D396B"/>
<path d="M5 944.075V950.809C5 951.914 5.89543 952.809 7 952.809H15.8182C16.3623 952.809 16.8829 952.588 17.2599 952.195L22.518 946.726C22.8951 946.334 23.4157 946.112 23.9598 946.112H56.136C56.5523 946.112 56.9583 946.242 57.2973 946.484L65.6444 952.437C65.9834 952.679 66.3894 952.809 66.8058 952.809H78.1163C80.054 952.809 80.8594 950.33 79.2916 949.191L71.6231 943.622C71.2282 943.335 70.9945 942.876 70.9945 942.388C70.9945 941.871 71.2572 941.388 71.6921 941.108L78.5727 936.666C80.2481 935.584 79.4821 932.986 77.488 932.986H66.7301C66.361 932.986 65.999 933.088 65.6844 933.281L57.2574 938.45C56.9427 938.643 56.5807 938.745 56.2116 938.745H33.6929C32.5883 938.745 31.6929 937.85 31.6929 936.745V934.986C31.6929 933.881 30.7974 932.986 29.6929 932.986H17.4195C16.9361 932.986 16.469 933.161 16.1048 933.478L5.68529 942.567C5.24988 942.947 5 943.497 5 944.075Z" stroke="#3D396B"/>
<path d="M98.2239 945.718V950.765C98.2239 951.887 99.146 952.789 100.267 952.765L103.741 952.689C104.165 952.68 104.576 952.536 104.913 952.278L116.465 943.443C116.814 943.176 117.241 943.031 117.68 943.031H129.758C130.862 943.031 131.758 943.927 131.758 945.031V950.675C131.758 951.78 132.653 952.675 133.758 952.675H154.537C154.987 952.675 155.423 952.524 155.776 952.245L166.892 943.462C167.246 943.183 167.682 943.031 168.132 943.031H178.583C179.687 943.031 180.583 943.927 180.583 945.031V950.675C180.583 951.78 181.477 952.675 182.582 952.675H187.596C188.008 952.675 188.409 952.552 188.737 952.302C191.525 950.182 196.165 945.55 198.677 942.937C199.032 942.568 199.228 942.076 199.228 941.563V934.986C199.228 933.881 198.332 932.986 197.228 932.986H164.955C164.48 932.986 164.02 933.155 163.658 933.464L153.78 941.884C153.418 942.192 152.958 942.362 152.482 942.362H145.427C144.323 942.362 143.427 941.466 143.427 940.362V934.986C143.427 933.881 142.532 932.986 141.427 932.986H113.292C112.829 932.986 112.381 933.146 112.023 933.44L98.9546 944.173C98.492 944.552 98.2239 945.12 98.2239 945.718Z" stroke="#3D396B"/>
<path d="M214.519 943.976V950.675C214.519 951.78 215.414 952.675 216.519 952.675H274.848C275.383 952.675 275.896 952.461 276.272 952.08L281.179 947.106C282.426 945.842 281.53 943.701 279.755 943.701H232.14C231.11 943.701 230.61 942.441 231.359 941.734C231.571 941.535 231.85 941.424 232.14 941.424H285.722C286.252 941.424 286.76 941.214 287.135 940.839L291.58 936.401C292.841 935.141 291.949 932.986 290.167 932.986H227.442C226.979 932.986 226.53 933.147 226.172 933.441L215.248 942.431C214.786 942.811 214.519 943.378 214.519 943.976Z" stroke="#3D396B"/>
<path d="M5 15.0891V21.8236C5 22.9282 5.89543 23.8236 7 23.8236H15.8182C16.3623 23.8236 16.8829 23.6019 17.2599 23.2097L22.518 17.7403C22.8951 17.3481 23.4157 17.1264 23.9598 17.1264H56.136C56.5523 17.1264 56.9583 17.2564 57.2973 17.4982L65.6444 23.4518C65.9834 23.6936 66.3894 23.8236 66.8058 23.8236H78.1163C80.054 23.8236 80.8594 21.3439 79.2916 20.2053L71.6231 14.6362C71.2282 14.3494 70.9945 13.8908 70.9945 13.4028C70.9945 12.8851 71.2572 12.4028 71.6921 12.122L78.5727 7.6803C80.2481 6.59879 79.4821 4 77.488 4H66.7301C66.361 4 65.999 4.10216 65.6844 4.29518L57.2574 9.46438C56.9427 9.65739 56.5807 9.75956 56.2116 9.75956H33.6929C32.5883 9.75956 31.6929 8.86413 31.6929 7.75956V6C31.6929 4.89543 30.7974 4 29.6929 4H17.4195C16.9361 4 16.469 4.17508 16.1048 4.49284L5.68529 13.5819C5.24988 13.9617 5 14.5113 5 15.0891Z" stroke="#3D396B"/>
<path d="M98.2239 16.7325V21.7797C98.2239 22.9013 99.146 23.8036 100.267 23.7792L103.741 23.7038C104.165 23.6946 104.576 23.5507 104.913 23.2929L116.465 14.4571C116.814 14.1903 117.241 14.0457 117.68 14.0457H129.758C130.862 14.0457 131.758 14.9412 131.758 16.0457V21.6896C131.758 22.7942 132.653 23.6896 133.758 23.6896H154.537C154.987 23.6896 155.423 23.5379 155.776 23.259L166.892 14.4764C167.246 14.1975 167.682 14.0457 168.132 14.0457H178.583C179.687 14.0457 180.583 14.9412 180.583 16.0457V21.6896C180.583 22.7942 181.477 23.6896 182.582 23.6896H187.596C188.008 23.6896 188.409 23.566 188.737 23.3168C191.525 21.1965 196.165 16.5643 198.677 13.9518C199.032 13.5824 199.228 13.0903 199.228 12.5777V6C199.228 4.89543 198.332 4 197.228 4H164.955C164.48 4 164.02 4.16945 163.658 4.47795L153.78 12.8981C153.418 13.2066 152.958 13.376 152.482 13.376H145.427C144.323 13.376 143.427 12.4806 143.427 11.376V6C143.427 4.89543 142.532 4 141.427 4H113.292C112.829 4 112.381 4.1606 112.023 4.45442L98.9546 15.1869C98.492 15.5668 98.2239 16.1339 98.2239 16.7325Z" stroke="#3D396B"/>
<path d="M214.519 14.99V21.6896C214.519 22.7942 215.414 23.6896 216.519 23.6896H274.848C275.383 23.6896 275.896 23.4752 276.272 23.0942L281.179 18.12C282.426 16.8562 281.53 14.7155 279.755 14.7155H232.14C231.11 14.7155 230.61 13.4557 231.359 12.7487C231.571 12.5494 231.85 12.4384 232.14 12.4384H285.722C286.252 12.4384 286.76 12.2281 287.135 11.8536L291.58 7.41523C292.841 6.15571 291.949 4 290.167 4H227.442C226.979 4 226.53 4.1611 226.172 4.45574L215.248 13.4457C214.786 13.8256 214.519 14.3921 214.519 14.99Z" stroke="#3D396B"/>
<path d="M5 187.746V194.481C5 195.585 5.89543 196.481 7 196.481H15.8182C16.3623 196.481 16.8829 196.259 17.2599 195.867L22.518 190.397C22.8951 190.005 23.4157 189.784 23.9598 189.784H56.136C56.5523 189.784 56.9583 189.913 57.2973 190.155L65.6444 196.109C65.9834 196.351 66.3894 196.481 66.8058 196.481H78.1163C80.054 196.481 80.8594 194.001 79.2916 192.862L71.6231 187.293C71.2282 187.007 70.9945 186.548 70.9945 186.06C70.9945 185.542 71.2572 185.06 71.6921 184.779L78.5727 180.337C80.2481 179.256 79.4821 176.657 77.488 176.657H66.7301C66.361 176.657 65.999 176.759 65.6844 176.952L57.2574 182.121C56.9427 182.314 56.5807 182.417 56.2116 182.417H33.6929C32.5883 182.417 31.6929 181.521 31.6929 180.417V178.657C31.6929 177.553 30.7974 176.657 29.6929 176.657H17.4195C16.9361 176.657 16.469 176.832 16.1048 177.15L5.68529 186.239C5.24988 186.619 5 187.168 5 187.746Z" stroke="#3D396B"/>
<path d="M98.2239 189.39V194.437C98.2239 195.558 99.146 196.461 100.267 196.436L103.741 196.361C104.165 196.352 104.576 196.208 104.913 195.95L116.465 187.114C116.814 186.847 117.241 186.703 117.68 186.703H129.758C130.862 186.703 131.758 187.598 131.758 188.703V194.347C131.758 195.451 132.653 196.347 133.758 196.347H154.537C154.987 196.347 155.423 196.195 155.776 195.916L166.892 187.134C167.246 186.855 167.682 186.703 168.132 186.703H178.583C179.687 186.703 180.583 187.598 180.583 188.703V194.347C180.583 195.451 181.477 196.347 182.582 196.347H187.596C188.008 196.347 188.409 196.223 188.737 195.974C191.525 193.854 196.165 189.221 198.677 186.609C199.032 186.239 199.228 185.747 199.228 185.235V178.657C199.228 177.553 198.332 176.657 197.228 176.657H164.955C164.48 176.657 164.02 176.827 163.658 177.135L153.78 185.555C153.418 185.864 152.958 186.033 152.482 186.033H145.427C144.323 186.033 143.427 185.138 143.427 184.033V178.657C143.427 177.553 142.532 176.657 141.427 176.657H113.292C112.829 176.657 112.381 176.818 112.023 177.112L98.9546 187.844C98.492 188.224 98.2239 188.791 98.2239 189.39Z" stroke="#3D396B"/>
<path d="M214.519 187.647V194.347C214.519 195.451 215.414 196.347 216.519 196.347H274.848C275.383 196.347 275.896 196.132 276.272 195.751L281.179 190.777C282.426 189.513 281.53 187.373 279.755 187.373H232.14C231.11 187.373 230.61 186.113 231.359 185.406C231.571 185.207 231.85 185.096 232.14 185.096H285.722C286.252 185.096 286.76 184.885 287.135 184.511L291.58 180.072C292.841 178.813 291.949 176.657 290.167 176.657H227.442C226.979 176.657 226.53 176.818 226.172 177.113L215.248 186.103C214.786 186.483 214.519 187.049 214.519 187.647Z" stroke="#3D396B"/>
<path d="M5 101.418V108.152C5 109.257 5.89543 110.152 7 110.152H15.8182C16.3623 110.152 16.8829 109.931 17.2599 109.538L22.518 104.069C22.8951 103.677 23.4157 103.455 23.9598 103.455H56.136C56.5523 103.455 56.9583 103.585 57.2973 103.827L65.6444 109.78C65.9834 110.022 66.3894 110.152 66.8058 110.152H78.1163C80.054 110.152 80.8594 107.673 79.2916 106.534L71.6231 100.965C71.2282 100.678 70.9945 100.219 70.9945 99.7314C70.9945 99.2137 71.2572 98.7314 71.6921 98.4506L78.5727 94.0089C80.2481 92.9274 79.4821 90.3286 77.488 90.3286H66.7301C66.361 90.3286 65.999 90.4308 65.6844 90.6238L57.2574 95.793C56.9427 95.986 56.5807 96.0882 56.2116 96.0882H33.6929C32.5883 96.0882 31.6929 95.1927 31.6929 94.0882V92.3286C31.6929 91.224 30.7974 90.3286 29.6929 90.3286H17.4195C16.9361 90.3286 16.469 90.5037 16.1048 90.8215L5.68529 99.9105C5.24988 100.29 5 100.84 5 101.418Z" stroke="#3D396B"/>
<path d="M98.2239 103.061V108.108C98.2239 109.23 99.146 110.132 100.267 110.108L103.741 110.032C104.165 110.023 104.576 109.879 104.913 109.622L116.465 100.786C116.814 100.519 117.241 100.374 117.68 100.374H129.758C130.862 100.374 131.758 101.27 131.758 102.374V108.018C131.758 109.123 132.653 110.018 133.758 110.018H154.537C154.987 110.018 155.423 109.867 155.776 109.588L166.892 100.805C167.246 100.526 167.682 100.374 168.132 100.374H178.583C179.687 100.374 180.583 101.27 180.583 102.374V108.018C180.583 109.123 181.477 110.018 182.582 110.018H187.596C188.008 110.018 188.409 109.895 188.737 109.645C191.525 107.525 196.165 102.893 198.677 100.28C199.032 99.911 199.228 99.4189 199.228 98.9063V92.3286C199.228 91.224 198.332 90.3286 197.228 90.3286H164.955C164.48 90.3286 164.02 90.4981 163.658 90.8066L153.78 99.2267C153.418 99.5352 152.958 99.7046 152.482 99.7046H145.427C144.323 99.7046 143.427 98.8092 143.427 97.7046V92.3286C143.427 91.224 142.532 90.3286 141.427 90.3286H113.292C112.829 90.3286 112.381 90.4892 112.023 90.783L98.9546 101.516C98.492 101.895 98.2239 102.463 98.2239 103.061Z" stroke="#3D396B"/>
<path d="M214.519 101.319V108.018C214.519 109.123 215.414 110.018 216.519 110.018H274.848C275.383 110.018 275.896 109.804 276.272 109.423L281.179 104.449C282.426 103.185 281.53 101.044 279.755 101.044H232.14C231.11 101.044 230.61 99.7843 231.359 99.0773C231.571 98.878 231.85 98.767 232.14 98.767H285.722C286.252 98.767 286.76 98.5567 287.135 98.1823L291.58 93.7438C292.841 92.4843 291.949 90.3286 290.167 90.3286H227.442C226.979 90.3286 226.53 90.4897 226.172 90.7843L215.248 99.7743C214.786 100.154 214.519 100.721 214.519 101.319Z" stroke="#3D396B"/>
<path d="M5 274.075V280.809C5 281.914 5.89543 282.809 7 282.809H15.8182C16.3623 282.809 16.8829 282.588 17.2599 282.195L22.518 276.726C22.8951 276.334 23.4157 276.112 23.9598 276.112H56.136C56.5523 276.112 56.9583 276.242 57.2973 276.484L65.6444 282.437C65.9834 282.679 66.3894 282.809 66.8058 282.809H78.1163C80.054 282.809 80.8594 280.33 79.2916 279.191L71.6231 273.622C71.2282 273.335 70.9945 272.876 70.9945 272.388C70.9945 271.871 71.2572 271.388 71.6921 271.108L78.5727 266.666C80.2481 265.584 79.4821 262.986 77.488 262.986H66.7301C66.361 262.986 65.999 263.088 65.6844 263.281L57.2574 268.45C56.9427 268.643 56.5807 268.745 56.2116 268.745H33.6929C32.5883 268.745 31.6929 267.85 31.6929 266.745V264.986C31.6929 263.881 30.7974 262.986 29.6929 262.986H17.4195C16.9361 262.986 16.469 263.161 16.1048 263.478L5.68529 272.567C5.24988 272.947 5 273.497 5 274.075Z" stroke="#3D396B"/>
<path d="M98.2239 275.718V280.765C98.2239 281.887 99.146 282.789 100.267 282.765L103.741 282.689C104.165 282.68 104.576 282.536 104.913 282.278L116.465 273.443C116.814 273.176 117.241 273.031 117.68 273.031H129.758C130.862 273.031 131.758 273.927 131.758 275.031V280.675C131.758 281.78 132.653 282.675 133.758 282.675H154.537C154.987 282.675 155.423 282.524 155.776 282.245L166.892 273.462C167.246 273.183 167.682 273.031 168.132 273.031H178.583C179.687 273.031 180.583 273.927 180.583 275.031V280.675C180.583 281.78 181.477 282.675 182.582 282.675H187.596C188.008 282.675 188.409 282.552 188.737 282.302C191.525 280.182 196.165 275.55 198.677 272.937C199.032 272.568 199.228 272.076 199.228 271.563V264.986C199.228 263.881 198.332 262.986 197.228 262.986H164.955C164.48 262.986 164.02 263.155 163.658 263.464L153.78 271.884C153.418 272.192 152.958 272.362 152.482 272.362H145.427C144.323 272.362 143.427 271.466 143.427 270.362V264.986C143.427 263.881 142.532 262.986 141.427 262.986H113.292C112.829 262.986 112.381 263.146 112.023 263.44L98.9546 274.173C98.492 274.552 98.2239 275.12 98.2239 275.718Z" stroke="#3D396B"/>
<path d="M214.519 273.976V280.675C214.519 281.78 215.414 282.675 216.519 282.675H274.848C275.383 282.675 275.896 282.461 276.272 282.08L281.179 277.106C282.426 275.842 281.53 273.701 279.755 273.701H232.14C231.11 273.701 230.61 272.441 231.359 271.734C231.571 271.535 231.85 271.424 232.14 271.424H285.722C286.252 271.424 286.76 271.214 287.135 270.839L291.58 266.401C292.841 265.141 291.949 262.986 290.167 262.986H227.442C226.979 262.986 226.53 263.147 226.172 263.441L215.248 272.431C214.786 272.811 214.519 273.378 214.519 273.976Z" stroke="#3D396B"/>
</g>
<defs>
<filter id="filter0_df_219_218" x="0.5" y="0.5" width="296.172" height="960.809" filterUnits="userSpaceOnUse" color-interpolation-filters="sRGB">
<feFlood flood-opacity="0" result="BackgroundImageFix"/>
<feColorMatrix in="SourceAlpha" type="matrix" values="0 0 0 0 0 0 0 0 0 0 0 0 0 0 0 0 0 0 127 0" result="hardAlpha"/>
<feOffset dy="4"/>
<feGaussianBlur stdDeviation="2"/>
<feComposite in2="hardAlpha" operator="out"/>
<feColorMatrix type="matrix" values="0 0 0 0 0 0 0 0 0 0 0 0 0 0 0 0 0 0 0.25 0"/>
<feBlend mode="normal" in2="BackgroundImageFix" result="effect1_dropShadow_219_218"/>
<feBlend mode="normal" in="SourceGraphic" in2="effect1_dropShadow_219_218" result="shape"/>
<feGaussianBlur stdDeviation="1.5" result="effect2_foregroundBlur_219_218"/>
</filter>
</defs>
</svg>
